%TF.GenerationSoftware,KiCad,Pcbnew,9.0.3*%
%TF.CreationDate,2025-12-16T11:33:00+01:00*%
%TF.ProjectId,PTP_Josip_Grgic_Project1,5054505f-4a6f-4736-9970-5f4772676963,rev?*%
%TF.SameCoordinates,Original*%
%TF.FileFunction,Soldermask,Top*%
%TF.FilePolarity,Negative*%
%FSLAX46Y46*%
G04 Gerber Fmt 4.6, Leading zero omitted, Abs format (unit mm)*
G04 Created by KiCad (PCBNEW 9.0.3) date 2025-12-16 11:33:00*
%MOMM*%
%LPD*%
G01*
G04 APERTURE LIST*
G04 Aperture macros list*
%AMRoundRect*
0 Rectangle with rounded corners*
0 $1 Rounding radius*
0 $2 $3 $4 $5 $6 $7 $8 $9 X,Y pos of 4 corners*
0 Add a 4 corners polygon primitive as box body*
4,1,4,$2,$3,$4,$5,$6,$7,$8,$9,$2,$3,0*
0 Add four circle primitives for the rounded corners*
1,1,$1+$1,$2,$3*
1,1,$1+$1,$4,$5*
1,1,$1+$1,$6,$7*
1,1,$1+$1,$8,$9*
0 Add four rect primitives between the rounded corners*
20,1,$1+$1,$2,$3,$4,$5,0*
20,1,$1+$1,$4,$5,$6,$7,0*
20,1,$1+$1,$6,$7,$8,$9,0*
20,1,$1+$1,$8,$9,$2,$3,0*%
G04 Aperture macros list end*
%ADD10C,5.500000*%
%ADD11RoundRect,0.250000X0.550000X-0.550000X0.550000X0.550000X-0.550000X0.550000X-0.550000X-0.550000X0*%
%ADD12C,1.600000*%
%ADD13RoundRect,0.250000X0.950000X0.550000X-0.950000X0.550000X-0.950000X-0.550000X0.950000X-0.550000X0*%
%ADD14O,2.400000X1.600000*%
%ADD15RoundRect,0.250000X0.650000X-0.412500X0.650000X0.412500X-0.650000X0.412500X-0.650000X-0.412500X0*%
%ADD16RoundRect,0.250000X-0.400000X-0.625000X0.400000X-0.625000X0.400000X0.625000X-0.400000X0.625000X0*%
%ADD17RoundRect,0.250000X0.625000X-0.400000X0.625000X0.400000X-0.625000X0.400000X-0.625000X-0.400000X0*%
%ADD18C,2.400000*%
%ADD19RoundRect,0.250000X-0.412500X-0.650000X0.412500X-0.650000X0.412500X0.650000X-0.412500X0.650000X0*%
%ADD20RoundRect,0.250000X-0.550000X-0.550000X0.550000X-0.550000X0.550000X0.550000X-0.550000X0.550000X0*%
%ADD21C,2.000000*%
%ADD22R,1.800000X1.800000*%
%ADD23C,1.800000*%
%ADD24RoundRect,0.250000X-0.625000X0.400000X-0.625000X-0.400000X0.625000X-0.400000X0.625000X0.400000X0*%
%ADD25RoundRect,0.250000X-0.950000X-0.550000X0.950000X-0.550000X0.950000X0.550000X-0.950000X0.550000X0*%
%ADD26RoundRect,0.150000X-0.512500X-0.150000X0.512500X-0.150000X0.512500X0.150000X-0.512500X0.150000X0*%
%ADD27R,1.600000X1.600000*%
%ADD28RoundRect,0.250001X1.149999X-1.149999X1.149999X1.149999X-1.149999X1.149999X-1.149999X-1.149999X0*%
%ADD29C,2.800000*%
%ADD30RoundRect,0.249999X-0.850001X-0.850001X0.850001X-0.850001X0.850001X0.850001X-0.850001X0.850001X0*%
%ADD31C,2.200000*%
%ADD32O,3.500000X2.200000*%
%ADD33R,2.500000X1.500000*%
%ADD34O,2.500000X1.500000*%
G04 APERTURE END LIST*
D10*
%TO.C,H2*%
X124650000Y-117650000D03*
%TD*%
D11*
%TO.C,C1*%
X132000000Y-57425000D03*
D12*
X132000000Y-55425000D03*
%TD*%
D13*
%TO.C,U1*%
X146325000Y-65775000D03*
D14*
X146325000Y-63235000D03*
X146325000Y-60695000D03*
X146325000Y-58155000D03*
X138705000Y-58155000D03*
X138705000Y-60695000D03*
X138705000Y-63235000D03*
X138705000Y-65775000D03*
%TD*%
D15*
%TO.C,C3*%
X157025000Y-105850000D03*
X157025000Y-102725000D03*
%TD*%
D16*
%TO.C,R6*%
X196725000Y-89450000D03*
X199825000Y-89450000D03*
%TD*%
D17*
%TO.C,R12*%
X187200000Y-105500000D03*
X187200000Y-102400000D03*
%TD*%
D10*
%TO.C,H3*%
X204125000Y-56575000D03*
%TD*%
D18*
%TO.C,L1*%
X153250000Y-66475000D03*
X153250000Y-63475000D03*
%TD*%
D19*
%TO.C,C4*%
X126237500Y-95800000D03*
X129362500Y-95800000D03*
%TD*%
D16*
%TO.C,R14*%
X196825000Y-96245000D03*
X199925000Y-96245000D03*
%TD*%
D17*
%TO.C,R9*%
X172450000Y-105400000D03*
X172450000Y-102300000D03*
%TD*%
D20*
%TO.C,U7*%
X124295000Y-84215000D03*
D12*
X124295000Y-86755000D03*
X124295000Y-89295000D03*
X124295000Y-91835000D03*
X131915000Y-91835000D03*
X131915000Y-89295000D03*
X131915000Y-86755000D03*
X131915000Y-84215000D03*
%TD*%
D21*
%TO.C,SW1*%
X163125000Y-111175000D03*
X169625000Y-111175000D03*
X163125000Y-115675000D03*
X169625000Y-115675000D03*
%TD*%
D22*
%TO.C,D3*%
X183225000Y-66000000D03*
D23*
X185765000Y-66000000D03*
%TD*%
D15*
%TO.C,C5*%
X134850000Y-88175000D03*
X134850000Y-85050000D03*
%TD*%
D24*
%TO.C,R7*%
X167250000Y-102425000D03*
X167250000Y-105525000D03*
%TD*%
D22*
%TO.C,D1*%
X168160000Y-66150000D03*
D23*
X170700000Y-66150000D03*
%TD*%
D12*
%TO.C,R3*%
X183150000Y-60980000D03*
X183150000Y-50820000D03*
%TD*%
D22*
%TO.C,D2*%
X175975000Y-66000000D03*
D23*
X178515000Y-66000000D03*
%TD*%
D22*
%TO.C,D5*%
X190725000Y-66000000D03*
D23*
X193265000Y-66000000D03*
%TD*%
D16*
%TO.C,R17*%
X196475000Y-74150000D03*
X199575000Y-74150000D03*
%TD*%
D17*
%TO.C,R20*%
X119175000Y-86150000D03*
X119175000Y-83050000D03*
%TD*%
D16*
%TO.C,R18*%
X196225000Y-77400000D03*
X199325000Y-77400000D03*
%TD*%
D25*
%TO.C,U3*%
X167830000Y-73895000D03*
D14*
X167830000Y-76435000D03*
X167830000Y-78975000D03*
X167830000Y-81515000D03*
X167830000Y-84055000D03*
X167830000Y-86595000D03*
X167830000Y-89135000D03*
X167830000Y-91675000D03*
X175450000Y-91675000D03*
X175450000Y-89135000D03*
X175450000Y-86595000D03*
X175450000Y-84055000D03*
X175450000Y-81515000D03*
X175450000Y-78975000D03*
X175450000Y-76435000D03*
X175450000Y-73895000D03*
%TD*%
D26*
%TO.C,U6*%
X146912500Y-78925000D03*
X146912500Y-79875000D03*
X146912500Y-80825000D03*
X149187500Y-80825000D03*
X149187500Y-79875000D03*
X149187500Y-78925000D03*
%TD*%
D17*
%TO.C,R10*%
X177300000Y-105400000D03*
X177300000Y-102300000D03*
%TD*%
D16*
%TO.C,R5*%
X196825000Y-85095000D03*
X199925000Y-85095000D03*
%TD*%
D17*
%TO.C,R13*%
X162375000Y-105675000D03*
X162375000Y-102575000D03*
%TD*%
D10*
%TO.C,H1*%
X123500000Y-55500000D03*
%TD*%
D25*
%TO.C,U4*%
X184190000Y-74135000D03*
D14*
X184190000Y-76675000D03*
X184190000Y-79215000D03*
X184190000Y-81755000D03*
X184190000Y-84295000D03*
X184190000Y-86835000D03*
X184190000Y-89375000D03*
X184190000Y-91915000D03*
X191810000Y-91915000D03*
X191810000Y-89375000D03*
X191810000Y-86835000D03*
X191810000Y-84295000D03*
X191810000Y-81755000D03*
X191810000Y-79215000D03*
X191810000Y-76675000D03*
X191810000Y-74135000D03*
%TD*%
D12*
%TO.C,R4*%
X190900000Y-60630000D03*
X190900000Y-50470000D03*
%TD*%
D16*
%TO.C,R8*%
X196825000Y-92995000D03*
X199925000Y-92995000D03*
%TD*%
%TO.C,R16*%
X196725000Y-81520000D03*
X199825000Y-81520000D03*
%TD*%
%TO.C,R15*%
X196575000Y-71125000D03*
X199675000Y-71125000D03*
%TD*%
D12*
%TO.C,R1*%
X169025000Y-60855000D03*
X169025000Y-50695000D03*
%TD*%
D27*
%TO.C,U5*%
X204682500Y-74632500D03*
D12*
X204682500Y-77172500D03*
X204682500Y-79712500D03*
X204682500Y-82252500D03*
X204682500Y-84792500D03*
X209762500Y-84792500D03*
X209762500Y-82252500D03*
X209762500Y-79712500D03*
X209762500Y-77172500D03*
X209762500Y-74632500D03*
%TD*%
%TO.C,R2*%
X176325000Y-60980000D03*
X176325000Y-50820000D03*
%TD*%
D28*
%TO.C,J1*%
X124542500Y-72200000D03*
D29*
X124542500Y-67200000D03*
%TD*%
D25*
%TO.C,U2*%
X153915000Y-74010000D03*
D14*
X153915000Y-76550000D03*
X153915000Y-79090000D03*
X153915000Y-81630000D03*
X153915000Y-84170000D03*
X153915000Y-86710000D03*
X153915000Y-89250000D03*
X153915000Y-91790000D03*
X161535000Y-91790000D03*
X161535000Y-89250000D03*
X161535000Y-86710000D03*
X161535000Y-84170000D03*
X161535000Y-81630000D03*
X161535000Y-79090000D03*
X161535000Y-76550000D03*
X161535000Y-74010000D03*
%TD*%
D17*
%TO.C,R11*%
X182225000Y-105350000D03*
X182225000Y-102250000D03*
%TD*%
D11*
%TO.C,C2*%
X153550000Y-58225000D03*
D12*
X153550000Y-56225000D03*
%TD*%
D30*
%TO.C,D4*%
X137600000Y-52650000D03*
D31*
X150300000Y-52650000D03*
%TD*%
D10*
%TO.C,H4*%
X202650000Y-117100000D03*
%TD*%
D17*
%TO.C,R19*%
X119175000Y-93100000D03*
X119175000Y-90000000D03*
%TD*%
D32*
%TO.C,SW2*%
X140850000Y-75225000D03*
X140850000Y-83425000D03*
D33*
X140850000Y-77325000D03*
D34*
X140850000Y-79325000D03*
X140850000Y-81325000D03*
%TD*%
M02*
