%TF.GenerationSoftware,KiCad,Pcbnew,9.0.3*%
%TF.CreationDate,2025-12-16T11:33:00+01:00*%
%TF.ProjectId,PTP_Josip_Grgic_Project1,5054505f-4a6f-4736-9970-5f4772676963,rev?*%
%TF.SameCoordinates,Original*%
%TF.FileFunction,Legend,Top*%
%TF.FilePolarity,Positive*%
%FSLAX46Y46*%
G04 Gerber Fmt 4.6, Leading zero omitted, Abs format (unit mm)*
G04 Created by KiCad (PCBNEW 9.0.3) date 2025-12-16 11:33:00*
%MOMM*%
%LPD*%
G01*
G04 APERTURE LIST*
%ADD10C,0.150000*%
%ADD11C,0.120000*%
G04 APERTURE END LIST*
D10*
X123888095Y-111654819D02*
X123888095Y-110654819D01*
X123888095Y-111131009D02*
X124459523Y-111131009D01*
X124459523Y-111654819D02*
X124459523Y-110654819D01*
X124888095Y-110750057D02*
X124935714Y-110702438D01*
X124935714Y-110702438D02*
X125030952Y-110654819D01*
X125030952Y-110654819D02*
X125269047Y-110654819D01*
X125269047Y-110654819D02*
X125364285Y-110702438D01*
X125364285Y-110702438D02*
X125411904Y-110750057D01*
X125411904Y-110750057D02*
X125459523Y-110845295D01*
X125459523Y-110845295D02*
X125459523Y-110940533D01*
X125459523Y-110940533D02*
X125411904Y-111083390D01*
X125411904Y-111083390D02*
X124840476Y-111654819D01*
X124840476Y-111654819D02*
X125459523Y-111654819D01*
X128609580Y-56591666D02*
X128657200Y-56639285D01*
X128657200Y-56639285D02*
X128704819Y-56782142D01*
X128704819Y-56782142D02*
X128704819Y-56877380D01*
X128704819Y-56877380D02*
X128657200Y-57020237D01*
X128657200Y-57020237D02*
X128561961Y-57115475D01*
X128561961Y-57115475D02*
X128466723Y-57163094D01*
X128466723Y-57163094D02*
X128276247Y-57210713D01*
X128276247Y-57210713D02*
X128133390Y-57210713D01*
X128133390Y-57210713D02*
X127942914Y-57163094D01*
X127942914Y-57163094D02*
X127847676Y-57115475D01*
X127847676Y-57115475D02*
X127752438Y-57020237D01*
X127752438Y-57020237D02*
X127704819Y-56877380D01*
X127704819Y-56877380D02*
X127704819Y-56782142D01*
X127704819Y-56782142D02*
X127752438Y-56639285D01*
X127752438Y-56639285D02*
X127800057Y-56591666D01*
X128704819Y-55639285D02*
X128704819Y-56210713D01*
X128704819Y-55924999D02*
X127704819Y-55924999D01*
X127704819Y-55924999D02*
X127847676Y-56020237D01*
X127847676Y-56020237D02*
X127942914Y-56115475D01*
X127942914Y-56115475D02*
X127990533Y-56210713D01*
X141753095Y-67559819D02*
X141753095Y-68369342D01*
X141753095Y-68369342D02*
X141800714Y-68464580D01*
X141800714Y-68464580D02*
X141848333Y-68512200D01*
X141848333Y-68512200D02*
X141943571Y-68559819D01*
X141943571Y-68559819D02*
X142134047Y-68559819D01*
X142134047Y-68559819D02*
X142229285Y-68512200D01*
X142229285Y-68512200D02*
X142276904Y-68464580D01*
X142276904Y-68464580D02*
X142324523Y-68369342D01*
X142324523Y-68369342D02*
X142324523Y-67559819D01*
X143324523Y-68559819D02*
X142753095Y-68559819D01*
X143038809Y-68559819D02*
X143038809Y-67559819D01*
X143038809Y-67559819D02*
X142943571Y-67702676D01*
X142943571Y-67702676D02*
X142848333Y-67797914D01*
X142848333Y-67797914D02*
X142753095Y-67845533D01*
X155534580Y-104454166D02*
X155582200Y-104501785D01*
X155582200Y-104501785D02*
X155629819Y-104644642D01*
X155629819Y-104644642D02*
X155629819Y-104739880D01*
X155629819Y-104739880D02*
X155582200Y-104882737D01*
X155582200Y-104882737D02*
X155486961Y-104977975D01*
X155486961Y-104977975D02*
X155391723Y-105025594D01*
X155391723Y-105025594D02*
X155201247Y-105073213D01*
X155201247Y-105073213D02*
X155058390Y-105073213D01*
X155058390Y-105073213D02*
X154867914Y-105025594D01*
X154867914Y-105025594D02*
X154772676Y-104977975D01*
X154772676Y-104977975D02*
X154677438Y-104882737D01*
X154677438Y-104882737D02*
X154629819Y-104739880D01*
X154629819Y-104739880D02*
X154629819Y-104644642D01*
X154629819Y-104644642D02*
X154677438Y-104501785D01*
X154677438Y-104501785D02*
X154725057Y-104454166D01*
X154629819Y-104120832D02*
X154629819Y-103501785D01*
X154629819Y-103501785D02*
X155010771Y-103835118D01*
X155010771Y-103835118D02*
X155010771Y-103692261D01*
X155010771Y-103692261D02*
X155058390Y-103597023D01*
X155058390Y-103597023D02*
X155106009Y-103549404D01*
X155106009Y-103549404D02*
X155201247Y-103501785D01*
X155201247Y-103501785D02*
X155439342Y-103501785D01*
X155439342Y-103501785D02*
X155534580Y-103549404D01*
X155534580Y-103549404D02*
X155582200Y-103597023D01*
X155582200Y-103597023D02*
X155629819Y-103692261D01*
X155629819Y-103692261D02*
X155629819Y-103977975D01*
X155629819Y-103977975D02*
X155582200Y-104073213D01*
X155582200Y-104073213D02*
X155534580Y-104120832D01*
X198108333Y-88074819D02*
X197775000Y-87598628D01*
X197536905Y-88074819D02*
X197536905Y-87074819D01*
X197536905Y-87074819D02*
X197917857Y-87074819D01*
X197917857Y-87074819D02*
X198013095Y-87122438D01*
X198013095Y-87122438D02*
X198060714Y-87170057D01*
X198060714Y-87170057D02*
X198108333Y-87265295D01*
X198108333Y-87265295D02*
X198108333Y-87408152D01*
X198108333Y-87408152D02*
X198060714Y-87503390D01*
X198060714Y-87503390D02*
X198013095Y-87551009D01*
X198013095Y-87551009D02*
X197917857Y-87598628D01*
X197917857Y-87598628D02*
X197536905Y-87598628D01*
X198965476Y-87074819D02*
X198775000Y-87074819D01*
X198775000Y-87074819D02*
X198679762Y-87122438D01*
X198679762Y-87122438D02*
X198632143Y-87170057D01*
X198632143Y-87170057D02*
X198536905Y-87312914D01*
X198536905Y-87312914D02*
X198489286Y-87503390D01*
X198489286Y-87503390D02*
X198489286Y-87884342D01*
X198489286Y-87884342D02*
X198536905Y-87979580D01*
X198536905Y-87979580D02*
X198584524Y-88027200D01*
X198584524Y-88027200D02*
X198679762Y-88074819D01*
X198679762Y-88074819D02*
X198870238Y-88074819D01*
X198870238Y-88074819D02*
X198965476Y-88027200D01*
X198965476Y-88027200D02*
X199013095Y-87979580D01*
X199013095Y-87979580D02*
X199060714Y-87884342D01*
X199060714Y-87884342D02*
X199060714Y-87646247D01*
X199060714Y-87646247D02*
X199013095Y-87551009D01*
X199013095Y-87551009D02*
X198965476Y-87503390D01*
X198965476Y-87503390D02*
X198870238Y-87455771D01*
X198870238Y-87455771D02*
X198679762Y-87455771D01*
X198679762Y-87455771D02*
X198584524Y-87503390D01*
X198584524Y-87503390D02*
X198536905Y-87551009D01*
X198536905Y-87551009D02*
X198489286Y-87646247D01*
X185824819Y-104592857D02*
X185348628Y-104926190D01*
X185824819Y-105164285D02*
X184824819Y-105164285D01*
X184824819Y-105164285D02*
X184824819Y-104783333D01*
X184824819Y-104783333D02*
X184872438Y-104688095D01*
X184872438Y-104688095D02*
X184920057Y-104640476D01*
X184920057Y-104640476D02*
X185015295Y-104592857D01*
X185015295Y-104592857D02*
X185158152Y-104592857D01*
X185158152Y-104592857D02*
X185253390Y-104640476D01*
X185253390Y-104640476D02*
X185301009Y-104688095D01*
X185301009Y-104688095D02*
X185348628Y-104783333D01*
X185348628Y-104783333D02*
X185348628Y-105164285D01*
X185824819Y-103640476D02*
X185824819Y-104211904D01*
X185824819Y-103926190D02*
X184824819Y-103926190D01*
X184824819Y-103926190D02*
X184967676Y-104021428D01*
X184967676Y-104021428D02*
X185062914Y-104116666D01*
X185062914Y-104116666D02*
X185110533Y-104211904D01*
X184920057Y-103259523D02*
X184872438Y-103211904D01*
X184872438Y-103211904D02*
X184824819Y-103116666D01*
X184824819Y-103116666D02*
X184824819Y-102878571D01*
X184824819Y-102878571D02*
X184872438Y-102783333D01*
X184872438Y-102783333D02*
X184920057Y-102735714D01*
X184920057Y-102735714D02*
X185015295Y-102688095D01*
X185015295Y-102688095D02*
X185110533Y-102688095D01*
X185110533Y-102688095D02*
X185253390Y-102735714D01*
X185253390Y-102735714D02*
X185824819Y-103307142D01*
X185824819Y-103307142D02*
X185824819Y-102688095D01*
X203363095Y-50579819D02*
X203363095Y-49579819D01*
X203363095Y-50056009D02*
X203934523Y-50056009D01*
X203934523Y-50579819D02*
X203934523Y-49579819D01*
X204315476Y-49579819D02*
X204934523Y-49579819D01*
X204934523Y-49579819D02*
X204601190Y-49960771D01*
X204601190Y-49960771D02*
X204744047Y-49960771D01*
X204744047Y-49960771D02*
X204839285Y-50008390D01*
X204839285Y-50008390D02*
X204886904Y-50056009D01*
X204886904Y-50056009D02*
X204934523Y-50151247D01*
X204934523Y-50151247D02*
X204934523Y-50389342D01*
X204934523Y-50389342D02*
X204886904Y-50484580D01*
X204886904Y-50484580D02*
X204839285Y-50532200D01*
X204839285Y-50532200D02*
X204744047Y-50579819D01*
X204744047Y-50579819D02*
X204458333Y-50579819D01*
X204458333Y-50579819D02*
X204363095Y-50532200D01*
X204363095Y-50532200D02*
X204315476Y-50484580D01*
X148854819Y-65141666D02*
X148854819Y-65617856D01*
X148854819Y-65617856D02*
X147854819Y-65617856D01*
X148854819Y-64284523D02*
X148854819Y-64855951D01*
X148854819Y-64570237D02*
X147854819Y-64570237D01*
X147854819Y-64570237D02*
X147997676Y-64665475D01*
X147997676Y-64665475D02*
X148092914Y-64760713D01*
X148092914Y-64760713D02*
X148140533Y-64855951D01*
X127633333Y-94309580D02*
X127585714Y-94357200D01*
X127585714Y-94357200D02*
X127442857Y-94404819D01*
X127442857Y-94404819D02*
X127347619Y-94404819D01*
X127347619Y-94404819D02*
X127204762Y-94357200D01*
X127204762Y-94357200D02*
X127109524Y-94261961D01*
X127109524Y-94261961D02*
X127061905Y-94166723D01*
X127061905Y-94166723D02*
X127014286Y-93976247D01*
X127014286Y-93976247D02*
X127014286Y-93833390D01*
X127014286Y-93833390D02*
X127061905Y-93642914D01*
X127061905Y-93642914D02*
X127109524Y-93547676D01*
X127109524Y-93547676D02*
X127204762Y-93452438D01*
X127204762Y-93452438D02*
X127347619Y-93404819D01*
X127347619Y-93404819D02*
X127442857Y-93404819D01*
X127442857Y-93404819D02*
X127585714Y-93452438D01*
X127585714Y-93452438D02*
X127633333Y-93500057D01*
X128490476Y-93738152D02*
X128490476Y-94404819D01*
X128252381Y-93357200D02*
X128014286Y-94071485D01*
X128014286Y-94071485D02*
X128633333Y-94071485D01*
X197732142Y-94869819D02*
X197398809Y-94393628D01*
X197160714Y-94869819D02*
X197160714Y-93869819D01*
X197160714Y-93869819D02*
X197541666Y-93869819D01*
X197541666Y-93869819D02*
X197636904Y-93917438D01*
X197636904Y-93917438D02*
X197684523Y-93965057D01*
X197684523Y-93965057D02*
X197732142Y-94060295D01*
X197732142Y-94060295D02*
X197732142Y-94203152D01*
X197732142Y-94203152D02*
X197684523Y-94298390D01*
X197684523Y-94298390D02*
X197636904Y-94346009D01*
X197636904Y-94346009D02*
X197541666Y-94393628D01*
X197541666Y-94393628D02*
X197160714Y-94393628D01*
X198684523Y-94869819D02*
X198113095Y-94869819D01*
X198398809Y-94869819D02*
X198398809Y-93869819D01*
X198398809Y-93869819D02*
X198303571Y-94012676D01*
X198303571Y-94012676D02*
X198208333Y-94107914D01*
X198208333Y-94107914D02*
X198113095Y-94155533D01*
X199541666Y-94203152D02*
X199541666Y-94869819D01*
X199303571Y-93822200D02*
X199065476Y-94536485D01*
X199065476Y-94536485D02*
X199684523Y-94536485D01*
X171074819Y-104016666D02*
X170598628Y-104349999D01*
X171074819Y-104588094D02*
X170074819Y-104588094D01*
X170074819Y-104588094D02*
X170074819Y-104207142D01*
X170074819Y-104207142D02*
X170122438Y-104111904D01*
X170122438Y-104111904D02*
X170170057Y-104064285D01*
X170170057Y-104064285D02*
X170265295Y-104016666D01*
X170265295Y-104016666D02*
X170408152Y-104016666D01*
X170408152Y-104016666D02*
X170503390Y-104064285D01*
X170503390Y-104064285D02*
X170551009Y-104111904D01*
X170551009Y-104111904D02*
X170598628Y-104207142D01*
X170598628Y-104207142D02*
X170598628Y-104588094D01*
X171074819Y-103540475D02*
X171074819Y-103349999D01*
X171074819Y-103349999D02*
X171027200Y-103254761D01*
X171027200Y-103254761D02*
X170979580Y-103207142D01*
X170979580Y-103207142D02*
X170836723Y-103111904D01*
X170836723Y-103111904D02*
X170646247Y-103064285D01*
X170646247Y-103064285D02*
X170265295Y-103064285D01*
X170265295Y-103064285D02*
X170170057Y-103111904D01*
X170170057Y-103111904D02*
X170122438Y-103159523D01*
X170122438Y-103159523D02*
X170074819Y-103254761D01*
X170074819Y-103254761D02*
X170074819Y-103445237D01*
X170074819Y-103445237D02*
X170122438Y-103540475D01*
X170122438Y-103540475D02*
X170170057Y-103588094D01*
X170170057Y-103588094D02*
X170265295Y-103635713D01*
X170265295Y-103635713D02*
X170503390Y-103635713D01*
X170503390Y-103635713D02*
X170598628Y-103588094D01*
X170598628Y-103588094D02*
X170646247Y-103540475D01*
X170646247Y-103540475D02*
X170693866Y-103445237D01*
X170693866Y-103445237D02*
X170693866Y-103254761D01*
X170693866Y-103254761D02*
X170646247Y-103159523D01*
X170646247Y-103159523D02*
X170598628Y-103111904D01*
X170598628Y-103111904D02*
X170503390Y-103064285D01*
X127343095Y-81339819D02*
X127343095Y-82149342D01*
X127343095Y-82149342D02*
X127390714Y-82244580D01*
X127390714Y-82244580D02*
X127438333Y-82292200D01*
X127438333Y-82292200D02*
X127533571Y-82339819D01*
X127533571Y-82339819D02*
X127724047Y-82339819D01*
X127724047Y-82339819D02*
X127819285Y-82292200D01*
X127819285Y-82292200D02*
X127866904Y-82244580D01*
X127866904Y-82244580D02*
X127914523Y-82149342D01*
X127914523Y-82149342D02*
X127914523Y-81339819D01*
X128295476Y-81339819D02*
X128962142Y-81339819D01*
X128962142Y-81339819D02*
X128533571Y-82339819D01*
X165041667Y-109582200D02*
X165184524Y-109629819D01*
X165184524Y-109629819D02*
X165422619Y-109629819D01*
X165422619Y-109629819D02*
X165517857Y-109582200D01*
X165517857Y-109582200D02*
X165565476Y-109534580D01*
X165565476Y-109534580D02*
X165613095Y-109439342D01*
X165613095Y-109439342D02*
X165613095Y-109344104D01*
X165613095Y-109344104D02*
X165565476Y-109248866D01*
X165565476Y-109248866D02*
X165517857Y-109201247D01*
X165517857Y-109201247D02*
X165422619Y-109153628D01*
X165422619Y-109153628D02*
X165232143Y-109106009D01*
X165232143Y-109106009D02*
X165136905Y-109058390D01*
X165136905Y-109058390D02*
X165089286Y-109010771D01*
X165089286Y-109010771D02*
X165041667Y-108915533D01*
X165041667Y-108915533D02*
X165041667Y-108820295D01*
X165041667Y-108820295D02*
X165089286Y-108725057D01*
X165089286Y-108725057D02*
X165136905Y-108677438D01*
X165136905Y-108677438D02*
X165232143Y-108629819D01*
X165232143Y-108629819D02*
X165470238Y-108629819D01*
X165470238Y-108629819D02*
X165613095Y-108677438D01*
X165946429Y-108629819D02*
X166184524Y-109629819D01*
X166184524Y-109629819D02*
X166375000Y-108915533D01*
X166375000Y-108915533D02*
X166565476Y-109629819D01*
X166565476Y-109629819D02*
X166803572Y-108629819D01*
X167708333Y-109629819D02*
X167136905Y-109629819D01*
X167422619Y-109629819D02*
X167422619Y-108629819D01*
X167422619Y-108629819D02*
X167327381Y-108772676D01*
X167327381Y-108772676D02*
X167232143Y-108867914D01*
X167232143Y-108867914D02*
X167136905Y-108915533D01*
X176506905Y-61744819D02*
X176506905Y-60744819D01*
X176506905Y-60744819D02*
X176745000Y-60744819D01*
X176745000Y-60744819D02*
X176887857Y-60792438D01*
X176887857Y-60792438D02*
X176983095Y-60887676D01*
X176983095Y-60887676D02*
X177030714Y-60982914D01*
X177030714Y-60982914D02*
X177078333Y-61173390D01*
X177078333Y-61173390D02*
X177078333Y-61316247D01*
X177078333Y-61316247D02*
X177030714Y-61506723D01*
X177030714Y-61506723D02*
X176983095Y-61601961D01*
X176983095Y-61601961D02*
X176887857Y-61697200D01*
X176887857Y-61697200D02*
X176745000Y-61744819D01*
X176745000Y-61744819D02*
X176506905Y-61744819D01*
X177411667Y-60744819D02*
X178030714Y-60744819D01*
X178030714Y-60744819D02*
X177697381Y-61125771D01*
X177697381Y-61125771D02*
X177840238Y-61125771D01*
X177840238Y-61125771D02*
X177935476Y-61173390D01*
X177935476Y-61173390D02*
X177983095Y-61221009D01*
X177983095Y-61221009D02*
X178030714Y-61316247D01*
X178030714Y-61316247D02*
X178030714Y-61554342D01*
X178030714Y-61554342D02*
X177983095Y-61649580D01*
X177983095Y-61649580D02*
X177935476Y-61697200D01*
X177935476Y-61697200D02*
X177840238Y-61744819D01*
X177840238Y-61744819D02*
X177554524Y-61744819D01*
X177554524Y-61744819D02*
X177459286Y-61697200D01*
X177459286Y-61697200D02*
X177411667Y-61649580D01*
X133359580Y-86779166D02*
X133407200Y-86826785D01*
X133407200Y-86826785D02*
X133454819Y-86969642D01*
X133454819Y-86969642D02*
X133454819Y-87064880D01*
X133454819Y-87064880D02*
X133407200Y-87207737D01*
X133407200Y-87207737D02*
X133311961Y-87302975D01*
X133311961Y-87302975D02*
X133216723Y-87350594D01*
X133216723Y-87350594D02*
X133026247Y-87398213D01*
X133026247Y-87398213D02*
X132883390Y-87398213D01*
X132883390Y-87398213D02*
X132692914Y-87350594D01*
X132692914Y-87350594D02*
X132597676Y-87302975D01*
X132597676Y-87302975D02*
X132502438Y-87207737D01*
X132502438Y-87207737D02*
X132454819Y-87064880D01*
X132454819Y-87064880D02*
X132454819Y-86969642D01*
X132454819Y-86969642D02*
X132502438Y-86826785D01*
X132502438Y-86826785D02*
X132550057Y-86779166D01*
X132454819Y-85874404D02*
X132454819Y-86350594D01*
X132454819Y-86350594D02*
X132931009Y-86398213D01*
X132931009Y-86398213D02*
X132883390Y-86350594D01*
X132883390Y-86350594D02*
X132835771Y-86255356D01*
X132835771Y-86255356D02*
X132835771Y-86017261D01*
X132835771Y-86017261D02*
X132883390Y-85922023D01*
X132883390Y-85922023D02*
X132931009Y-85874404D01*
X132931009Y-85874404D02*
X133026247Y-85826785D01*
X133026247Y-85826785D02*
X133264342Y-85826785D01*
X133264342Y-85826785D02*
X133359580Y-85874404D01*
X133359580Y-85874404D02*
X133407200Y-85922023D01*
X133407200Y-85922023D02*
X133454819Y-86017261D01*
X133454819Y-86017261D02*
X133454819Y-86255356D01*
X133454819Y-86255356D02*
X133407200Y-86350594D01*
X133407200Y-86350594D02*
X133359580Y-86398213D01*
X169534819Y-104141666D02*
X169058628Y-104474999D01*
X169534819Y-104713094D02*
X168534819Y-104713094D01*
X168534819Y-104713094D02*
X168534819Y-104332142D01*
X168534819Y-104332142D02*
X168582438Y-104236904D01*
X168582438Y-104236904D02*
X168630057Y-104189285D01*
X168630057Y-104189285D02*
X168725295Y-104141666D01*
X168725295Y-104141666D02*
X168868152Y-104141666D01*
X168868152Y-104141666D02*
X168963390Y-104189285D01*
X168963390Y-104189285D02*
X169011009Y-104236904D01*
X169011009Y-104236904D02*
X169058628Y-104332142D01*
X169058628Y-104332142D02*
X169058628Y-104713094D01*
X168534819Y-103808332D02*
X168534819Y-103141666D01*
X168534819Y-103141666D02*
X169534819Y-103570237D01*
X161441905Y-61894819D02*
X161441905Y-60894819D01*
X161441905Y-60894819D02*
X161680000Y-60894819D01*
X161680000Y-60894819D02*
X161822857Y-60942438D01*
X161822857Y-60942438D02*
X161918095Y-61037676D01*
X161918095Y-61037676D02*
X161965714Y-61132914D01*
X161965714Y-61132914D02*
X162013333Y-61323390D01*
X162013333Y-61323390D02*
X162013333Y-61466247D01*
X162013333Y-61466247D02*
X161965714Y-61656723D01*
X161965714Y-61656723D02*
X161918095Y-61751961D01*
X161918095Y-61751961D02*
X161822857Y-61847200D01*
X161822857Y-61847200D02*
X161680000Y-61894819D01*
X161680000Y-61894819D02*
X161441905Y-61894819D01*
X162965714Y-61894819D02*
X162394286Y-61894819D01*
X162680000Y-61894819D02*
X162680000Y-60894819D01*
X162680000Y-60894819D02*
X162584762Y-61037676D01*
X162584762Y-61037676D02*
X162489524Y-61132914D01*
X162489524Y-61132914D02*
X162394286Y-61180533D01*
X181234819Y-56066666D02*
X180758628Y-56399999D01*
X181234819Y-56638094D02*
X180234819Y-56638094D01*
X180234819Y-56638094D02*
X180234819Y-56257142D01*
X180234819Y-56257142D02*
X180282438Y-56161904D01*
X180282438Y-56161904D02*
X180330057Y-56114285D01*
X180330057Y-56114285D02*
X180425295Y-56066666D01*
X180425295Y-56066666D02*
X180568152Y-56066666D01*
X180568152Y-56066666D02*
X180663390Y-56114285D01*
X180663390Y-56114285D02*
X180711009Y-56161904D01*
X180711009Y-56161904D02*
X180758628Y-56257142D01*
X180758628Y-56257142D02*
X180758628Y-56638094D01*
X180234819Y-55733332D02*
X180234819Y-55114285D01*
X180234819Y-55114285D02*
X180615771Y-55447618D01*
X180615771Y-55447618D02*
X180615771Y-55304761D01*
X180615771Y-55304761D02*
X180663390Y-55209523D01*
X180663390Y-55209523D02*
X180711009Y-55161904D01*
X180711009Y-55161904D02*
X180806247Y-55114285D01*
X180806247Y-55114285D02*
X181044342Y-55114285D01*
X181044342Y-55114285D02*
X181139580Y-55161904D01*
X181139580Y-55161904D02*
X181187200Y-55209523D01*
X181187200Y-55209523D02*
X181234819Y-55304761D01*
X181234819Y-55304761D02*
X181234819Y-55590475D01*
X181234819Y-55590475D02*
X181187200Y-55685713D01*
X181187200Y-55685713D02*
X181139580Y-55733332D01*
X169256905Y-61744819D02*
X169256905Y-60744819D01*
X169256905Y-60744819D02*
X169495000Y-60744819D01*
X169495000Y-60744819D02*
X169637857Y-60792438D01*
X169637857Y-60792438D02*
X169733095Y-60887676D01*
X169733095Y-60887676D02*
X169780714Y-60982914D01*
X169780714Y-60982914D02*
X169828333Y-61173390D01*
X169828333Y-61173390D02*
X169828333Y-61316247D01*
X169828333Y-61316247D02*
X169780714Y-61506723D01*
X169780714Y-61506723D02*
X169733095Y-61601961D01*
X169733095Y-61601961D02*
X169637857Y-61697200D01*
X169637857Y-61697200D02*
X169495000Y-61744819D01*
X169495000Y-61744819D02*
X169256905Y-61744819D01*
X170209286Y-60840057D02*
X170256905Y-60792438D01*
X170256905Y-60792438D02*
X170352143Y-60744819D01*
X170352143Y-60744819D02*
X170590238Y-60744819D01*
X170590238Y-60744819D02*
X170685476Y-60792438D01*
X170685476Y-60792438D02*
X170733095Y-60840057D01*
X170733095Y-60840057D02*
X170780714Y-60935295D01*
X170780714Y-60935295D02*
X170780714Y-61030533D01*
X170780714Y-61030533D02*
X170733095Y-61173390D01*
X170733095Y-61173390D02*
X170161667Y-61744819D01*
X170161667Y-61744819D02*
X170780714Y-61744819D01*
X184006905Y-61744819D02*
X184006905Y-60744819D01*
X184006905Y-60744819D02*
X184245000Y-60744819D01*
X184245000Y-60744819D02*
X184387857Y-60792438D01*
X184387857Y-60792438D02*
X184483095Y-60887676D01*
X184483095Y-60887676D02*
X184530714Y-60982914D01*
X184530714Y-60982914D02*
X184578333Y-61173390D01*
X184578333Y-61173390D02*
X184578333Y-61316247D01*
X184578333Y-61316247D02*
X184530714Y-61506723D01*
X184530714Y-61506723D02*
X184483095Y-61601961D01*
X184483095Y-61601961D02*
X184387857Y-61697200D01*
X184387857Y-61697200D02*
X184245000Y-61744819D01*
X184245000Y-61744819D02*
X184006905Y-61744819D01*
X185483095Y-60744819D02*
X185006905Y-60744819D01*
X185006905Y-60744819D02*
X184959286Y-61221009D01*
X184959286Y-61221009D02*
X185006905Y-61173390D01*
X185006905Y-61173390D02*
X185102143Y-61125771D01*
X185102143Y-61125771D02*
X185340238Y-61125771D01*
X185340238Y-61125771D02*
X185435476Y-61173390D01*
X185435476Y-61173390D02*
X185483095Y-61221009D01*
X185483095Y-61221009D02*
X185530714Y-61316247D01*
X185530714Y-61316247D02*
X185530714Y-61554342D01*
X185530714Y-61554342D02*
X185483095Y-61649580D01*
X185483095Y-61649580D02*
X185435476Y-61697200D01*
X185435476Y-61697200D02*
X185340238Y-61744819D01*
X185340238Y-61744819D02*
X185102143Y-61744819D01*
X185102143Y-61744819D02*
X185006905Y-61697200D01*
X185006905Y-61697200D02*
X184959286Y-61649580D01*
X197382142Y-72774819D02*
X197048809Y-72298628D01*
X196810714Y-72774819D02*
X196810714Y-71774819D01*
X196810714Y-71774819D02*
X197191666Y-71774819D01*
X197191666Y-71774819D02*
X197286904Y-71822438D01*
X197286904Y-71822438D02*
X197334523Y-71870057D01*
X197334523Y-71870057D02*
X197382142Y-71965295D01*
X197382142Y-71965295D02*
X197382142Y-72108152D01*
X197382142Y-72108152D02*
X197334523Y-72203390D01*
X197334523Y-72203390D02*
X197286904Y-72251009D01*
X197286904Y-72251009D02*
X197191666Y-72298628D01*
X197191666Y-72298628D02*
X196810714Y-72298628D01*
X198334523Y-72774819D02*
X197763095Y-72774819D01*
X198048809Y-72774819D02*
X198048809Y-71774819D01*
X198048809Y-71774819D02*
X197953571Y-71917676D01*
X197953571Y-71917676D02*
X197858333Y-72012914D01*
X197858333Y-72012914D02*
X197763095Y-72060533D01*
X198667857Y-71774819D02*
X199334523Y-71774819D01*
X199334523Y-71774819D02*
X198905952Y-72774819D01*
X117799819Y-85242857D02*
X117323628Y-85576190D01*
X117799819Y-85814285D02*
X116799819Y-85814285D01*
X116799819Y-85814285D02*
X116799819Y-85433333D01*
X116799819Y-85433333D02*
X116847438Y-85338095D01*
X116847438Y-85338095D02*
X116895057Y-85290476D01*
X116895057Y-85290476D02*
X116990295Y-85242857D01*
X116990295Y-85242857D02*
X117133152Y-85242857D01*
X117133152Y-85242857D02*
X117228390Y-85290476D01*
X117228390Y-85290476D02*
X117276009Y-85338095D01*
X117276009Y-85338095D02*
X117323628Y-85433333D01*
X117323628Y-85433333D02*
X117323628Y-85814285D01*
X116895057Y-84861904D02*
X116847438Y-84814285D01*
X116847438Y-84814285D02*
X116799819Y-84719047D01*
X116799819Y-84719047D02*
X116799819Y-84480952D01*
X116799819Y-84480952D02*
X116847438Y-84385714D01*
X116847438Y-84385714D02*
X116895057Y-84338095D01*
X116895057Y-84338095D02*
X116990295Y-84290476D01*
X116990295Y-84290476D02*
X117085533Y-84290476D01*
X117085533Y-84290476D02*
X117228390Y-84338095D01*
X117228390Y-84338095D02*
X117799819Y-84909523D01*
X117799819Y-84909523D02*
X117799819Y-84290476D01*
X116799819Y-83671428D02*
X116799819Y-83576190D01*
X116799819Y-83576190D02*
X116847438Y-83480952D01*
X116847438Y-83480952D02*
X116895057Y-83433333D01*
X116895057Y-83433333D02*
X116990295Y-83385714D01*
X116990295Y-83385714D02*
X117180771Y-83338095D01*
X117180771Y-83338095D02*
X117418866Y-83338095D01*
X117418866Y-83338095D02*
X117609342Y-83385714D01*
X117609342Y-83385714D02*
X117704580Y-83433333D01*
X117704580Y-83433333D02*
X117752200Y-83480952D01*
X117752200Y-83480952D02*
X117799819Y-83576190D01*
X117799819Y-83576190D02*
X117799819Y-83671428D01*
X117799819Y-83671428D02*
X117752200Y-83766666D01*
X117752200Y-83766666D02*
X117704580Y-83814285D01*
X117704580Y-83814285D02*
X117609342Y-83861904D01*
X117609342Y-83861904D02*
X117418866Y-83909523D01*
X117418866Y-83909523D02*
X117180771Y-83909523D01*
X117180771Y-83909523D02*
X116990295Y-83861904D01*
X116990295Y-83861904D02*
X116895057Y-83814285D01*
X116895057Y-83814285D02*
X116847438Y-83766666D01*
X116847438Y-83766666D02*
X116799819Y-83671428D01*
X197132142Y-76024819D02*
X196798809Y-75548628D01*
X196560714Y-76024819D02*
X196560714Y-75024819D01*
X196560714Y-75024819D02*
X196941666Y-75024819D01*
X196941666Y-75024819D02*
X197036904Y-75072438D01*
X197036904Y-75072438D02*
X197084523Y-75120057D01*
X197084523Y-75120057D02*
X197132142Y-75215295D01*
X197132142Y-75215295D02*
X197132142Y-75358152D01*
X197132142Y-75358152D02*
X197084523Y-75453390D01*
X197084523Y-75453390D02*
X197036904Y-75501009D01*
X197036904Y-75501009D02*
X196941666Y-75548628D01*
X196941666Y-75548628D02*
X196560714Y-75548628D01*
X198084523Y-76024819D02*
X197513095Y-76024819D01*
X197798809Y-76024819D02*
X197798809Y-75024819D01*
X197798809Y-75024819D02*
X197703571Y-75167676D01*
X197703571Y-75167676D02*
X197608333Y-75262914D01*
X197608333Y-75262914D02*
X197513095Y-75310533D01*
X198655952Y-75453390D02*
X198560714Y-75405771D01*
X198560714Y-75405771D02*
X198513095Y-75358152D01*
X198513095Y-75358152D02*
X198465476Y-75262914D01*
X198465476Y-75262914D02*
X198465476Y-75215295D01*
X198465476Y-75215295D02*
X198513095Y-75120057D01*
X198513095Y-75120057D02*
X198560714Y-75072438D01*
X198560714Y-75072438D02*
X198655952Y-75024819D01*
X198655952Y-75024819D02*
X198846428Y-75024819D01*
X198846428Y-75024819D02*
X198941666Y-75072438D01*
X198941666Y-75072438D02*
X198989285Y-75120057D01*
X198989285Y-75120057D02*
X199036904Y-75215295D01*
X199036904Y-75215295D02*
X199036904Y-75262914D01*
X199036904Y-75262914D02*
X198989285Y-75358152D01*
X198989285Y-75358152D02*
X198941666Y-75405771D01*
X198941666Y-75405771D02*
X198846428Y-75453390D01*
X198846428Y-75453390D02*
X198655952Y-75453390D01*
X198655952Y-75453390D02*
X198560714Y-75501009D01*
X198560714Y-75501009D02*
X198513095Y-75548628D01*
X198513095Y-75548628D02*
X198465476Y-75643866D01*
X198465476Y-75643866D02*
X198465476Y-75834342D01*
X198465476Y-75834342D02*
X198513095Y-75929580D01*
X198513095Y-75929580D02*
X198560714Y-75977200D01*
X198560714Y-75977200D02*
X198655952Y-76024819D01*
X198655952Y-76024819D02*
X198846428Y-76024819D01*
X198846428Y-76024819D02*
X198941666Y-75977200D01*
X198941666Y-75977200D02*
X198989285Y-75929580D01*
X198989285Y-75929580D02*
X199036904Y-75834342D01*
X199036904Y-75834342D02*
X199036904Y-75643866D01*
X199036904Y-75643866D02*
X198989285Y-75548628D01*
X198989285Y-75548628D02*
X198941666Y-75501009D01*
X198941666Y-75501009D02*
X198846428Y-75453390D01*
X170878095Y-71019819D02*
X170878095Y-71829342D01*
X170878095Y-71829342D02*
X170925714Y-71924580D01*
X170925714Y-71924580D02*
X170973333Y-71972200D01*
X170973333Y-71972200D02*
X171068571Y-72019819D01*
X171068571Y-72019819D02*
X171259047Y-72019819D01*
X171259047Y-72019819D02*
X171354285Y-71972200D01*
X171354285Y-71972200D02*
X171401904Y-71924580D01*
X171401904Y-71924580D02*
X171449523Y-71829342D01*
X171449523Y-71829342D02*
X171449523Y-71019819D01*
X171830476Y-71019819D02*
X172449523Y-71019819D01*
X172449523Y-71019819D02*
X172116190Y-71400771D01*
X172116190Y-71400771D02*
X172259047Y-71400771D01*
X172259047Y-71400771D02*
X172354285Y-71448390D01*
X172354285Y-71448390D02*
X172401904Y-71496009D01*
X172401904Y-71496009D02*
X172449523Y-71591247D01*
X172449523Y-71591247D02*
X172449523Y-71829342D01*
X172449523Y-71829342D02*
X172401904Y-71924580D01*
X172401904Y-71924580D02*
X172354285Y-71972200D01*
X172354285Y-71972200D02*
X172259047Y-72019819D01*
X172259047Y-72019819D02*
X171973333Y-72019819D01*
X171973333Y-72019819D02*
X171878095Y-71972200D01*
X171878095Y-71972200D02*
X171830476Y-71924580D01*
X147288095Y-76929819D02*
X147288095Y-77739342D01*
X147288095Y-77739342D02*
X147335714Y-77834580D01*
X147335714Y-77834580D02*
X147383333Y-77882200D01*
X147383333Y-77882200D02*
X147478571Y-77929819D01*
X147478571Y-77929819D02*
X147669047Y-77929819D01*
X147669047Y-77929819D02*
X147764285Y-77882200D01*
X147764285Y-77882200D02*
X147811904Y-77834580D01*
X147811904Y-77834580D02*
X147859523Y-77739342D01*
X147859523Y-77739342D02*
X147859523Y-76929819D01*
X148764285Y-76929819D02*
X148573809Y-76929819D01*
X148573809Y-76929819D02*
X148478571Y-76977438D01*
X148478571Y-76977438D02*
X148430952Y-77025057D01*
X148430952Y-77025057D02*
X148335714Y-77167914D01*
X148335714Y-77167914D02*
X148288095Y-77358390D01*
X148288095Y-77358390D02*
X148288095Y-77739342D01*
X148288095Y-77739342D02*
X148335714Y-77834580D01*
X148335714Y-77834580D02*
X148383333Y-77882200D01*
X148383333Y-77882200D02*
X148478571Y-77929819D01*
X148478571Y-77929819D02*
X148669047Y-77929819D01*
X148669047Y-77929819D02*
X148764285Y-77882200D01*
X148764285Y-77882200D02*
X148811904Y-77834580D01*
X148811904Y-77834580D02*
X148859523Y-77739342D01*
X148859523Y-77739342D02*
X148859523Y-77501247D01*
X148859523Y-77501247D02*
X148811904Y-77406009D01*
X148811904Y-77406009D02*
X148764285Y-77358390D01*
X148764285Y-77358390D02*
X148669047Y-77310771D01*
X148669047Y-77310771D02*
X148478571Y-77310771D01*
X148478571Y-77310771D02*
X148383333Y-77358390D01*
X148383333Y-77358390D02*
X148335714Y-77406009D01*
X148335714Y-77406009D02*
X148288095Y-77501247D01*
X175924819Y-104492857D02*
X175448628Y-104826190D01*
X175924819Y-105064285D02*
X174924819Y-105064285D01*
X174924819Y-105064285D02*
X174924819Y-104683333D01*
X174924819Y-104683333D02*
X174972438Y-104588095D01*
X174972438Y-104588095D02*
X175020057Y-104540476D01*
X175020057Y-104540476D02*
X175115295Y-104492857D01*
X175115295Y-104492857D02*
X175258152Y-104492857D01*
X175258152Y-104492857D02*
X175353390Y-104540476D01*
X175353390Y-104540476D02*
X175401009Y-104588095D01*
X175401009Y-104588095D02*
X175448628Y-104683333D01*
X175448628Y-104683333D02*
X175448628Y-105064285D01*
X175924819Y-103540476D02*
X175924819Y-104111904D01*
X175924819Y-103826190D02*
X174924819Y-103826190D01*
X174924819Y-103826190D02*
X175067676Y-103921428D01*
X175067676Y-103921428D02*
X175162914Y-104016666D01*
X175162914Y-104016666D02*
X175210533Y-104111904D01*
X174924819Y-102921428D02*
X174924819Y-102826190D01*
X174924819Y-102826190D02*
X174972438Y-102730952D01*
X174972438Y-102730952D02*
X175020057Y-102683333D01*
X175020057Y-102683333D02*
X175115295Y-102635714D01*
X175115295Y-102635714D02*
X175305771Y-102588095D01*
X175305771Y-102588095D02*
X175543866Y-102588095D01*
X175543866Y-102588095D02*
X175734342Y-102635714D01*
X175734342Y-102635714D02*
X175829580Y-102683333D01*
X175829580Y-102683333D02*
X175877200Y-102730952D01*
X175877200Y-102730952D02*
X175924819Y-102826190D01*
X175924819Y-102826190D02*
X175924819Y-102921428D01*
X175924819Y-102921428D02*
X175877200Y-103016666D01*
X175877200Y-103016666D02*
X175829580Y-103064285D01*
X175829580Y-103064285D02*
X175734342Y-103111904D01*
X175734342Y-103111904D02*
X175543866Y-103159523D01*
X175543866Y-103159523D02*
X175305771Y-103159523D01*
X175305771Y-103159523D02*
X175115295Y-103111904D01*
X175115295Y-103111904D02*
X175020057Y-103064285D01*
X175020057Y-103064285D02*
X174972438Y-103016666D01*
X174972438Y-103016666D02*
X174924819Y-102921428D01*
X198208333Y-83174819D02*
X197875000Y-82698628D01*
X197636905Y-83174819D02*
X197636905Y-82174819D01*
X197636905Y-82174819D02*
X198017857Y-82174819D01*
X198017857Y-82174819D02*
X198113095Y-82222438D01*
X198113095Y-82222438D02*
X198160714Y-82270057D01*
X198160714Y-82270057D02*
X198208333Y-82365295D01*
X198208333Y-82365295D02*
X198208333Y-82508152D01*
X198208333Y-82508152D02*
X198160714Y-82603390D01*
X198160714Y-82603390D02*
X198113095Y-82651009D01*
X198113095Y-82651009D02*
X198017857Y-82698628D01*
X198017857Y-82698628D02*
X197636905Y-82698628D01*
X199113095Y-82174819D02*
X198636905Y-82174819D01*
X198636905Y-82174819D02*
X198589286Y-82651009D01*
X198589286Y-82651009D02*
X198636905Y-82603390D01*
X198636905Y-82603390D02*
X198732143Y-82555771D01*
X198732143Y-82555771D02*
X198970238Y-82555771D01*
X198970238Y-82555771D02*
X199065476Y-82603390D01*
X199065476Y-82603390D02*
X199113095Y-82651009D01*
X199113095Y-82651009D02*
X199160714Y-82746247D01*
X199160714Y-82746247D02*
X199160714Y-82984342D01*
X199160714Y-82984342D02*
X199113095Y-83079580D01*
X199113095Y-83079580D02*
X199065476Y-83127200D01*
X199065476Y-83127200D02*
X198970238Y-83174819D01*
X198970238Y-83174819D02*
X198732143Y-83174819D01*
X198732143Y-83174819D02*
X198636905Y-83127200D01*
X198636905Y-83127200D02*
X198589286Y-83079580D01*
X160999819Y-104767857D02*
X160523628Y-105101190D01*
X160999819Y-105339285D02*
X159999819Y-105339285D01*
X159999819Y-105339285D02*
X159999819Y-104958333D01*
X159999819Y-104958333D02*
X160047438Y-104863095D01*
X160047438Y-104863095D02*
X160095057Y-104815476D01*
X160095057Y-104815476D02*
X160190295Y-104767857D01*
X160190295Y-104767857D02*
X160333152Y-104767857D01*
X160333152Y-104767857D02*
X160428390Y-104815476D01*
X160428390Y-104815476D02*
X160476009Y-104863095D01*
X160476009Y-104863095D02*
X160523628Y-104958333D01*
X160523628Y-104958333D02*
X160523628Y-105339285D01*
X160999819Y-103815476D02*
X160999819Y-104386904D01*
X160999819Y-104101190D02*
X159999819Y-104101190D01*
X159999819Y-104101190D02*
X160142676Y-104196428D01*
X160142676Y-104196428D02*
X160237914Y-104291666D01*
X160237914Y-104291666D02*
X160285533Y-104386904D01*
X159999819Y-103482142D02*
X159999819Y-102863095D01*
X159999819Y-102863095D02*
X160380771Y-103196428D01*
X160380771Y-103196428D02*
X160380771Y-103053571D01*
X160380771Y-103053571D02*
X160428390Y-102958333D01*
X160428390Y-102958333D02*
X160476009Y-102910714D01*
X160476009Y-102910714D02*
X160571247Y-102863095D01*
X160571247Y-102863095D02*
X160809342Y-102863095D01*
X160809342Y-102863095D02*
X160904580Y-102910714D01*
X160904580Y-102910714D02*
X160952200Y-102958333D01*
X160952200Y-102958333D02*
X160999819Y-103053571D01*
X160999819Y-103053571D02*
X160999819Y-103339285D01*
X160999819Y-103339285D02*
X160952200Y-103434523D01*
X160952200Y-103434523D02*
X160904580Y-103482142D01*
X122738095Y-49504819D02*
X122738095Y-48504819D01*
X122738095Y-48981009D02*
X123309523Y-48981009D01*
X123309523Y-49504819D02*
X123309523Y-48504819D01*
X124309523Y-49504819D02*
X123738095Y-49504819D01*
X124023809Y-49504819D02*
X124023809Y-48504819D01*
X124023809Y-48504819D02*
X123928571Y-48647676D01*
X123928571Y-48647676D02*
X123833333Y-48742914D01*
X123833333Y-48742914D02*
X123738095Y-48790533D01*
X187238095Y-71259819D02*
X187238095Y-72069342D01*
X187238095Y-72069342D02*
X187285714Y-72164580D01*
X187285714Y-72164580D02*
X187333333Y-72212200D01*
X187333333Y-72212200D02*
X187428571Y-72259819D01*
X187428571Y-72259819D02*
X187619047Y-72259819D01*
X187619047Y-72259819D02*
X187714285Y-72212200D01*
X187714285Y-72212200D02*
X187761904Y-72164580D01*
X187761904Y-72164580D02*
X187809523Y-72069342D01*
X187809523Y-72069342D02*
X187809523Y-71259819D01*
X188714285Y-71593152D02*
X188714285Y-72259819D01*
X188476190Y-71212200D02*
X188238095Y-71926485D01*
X188238095Y-71926485D02*
X188857142Y-71926485D01*
X188984819Y-55716666D02*
X188508628Y-56049999D01*
X188984819Y-56288094D02*
X187984819Y-56288094D01*
X187984819Y-56288094D02*
X187984819Y-55907142D01*
X187984819Y-55907142D02*
X188032438Y-55811904D01*
X188032438Y-55811904D02*
X188080057Y-55764285D01*
X188080057Y-55764285D02*
X188175295Y-55716666D01*
X188175295Y-55716666D02*
X188318152Y-55716666D01*
X188318152Y-55716666D02*
X188413390Y-55764285D01*
X188413390Y-55764285D02*
X188461009Y-55811904D01*
X188461009Y-55811904D02*
X188508628Y-55907142D01*
X188508628Y-55907142D02*
X188508628Y-56288094D01*
X188318152Y-54859523D02*
X188984819Y-54859523D01*
X187937200Y-55097618D02*
X188651485Y-55335713D01*
X188651485Y-55335713D02*
X188651485Y-54716666D01*
X198208333Y-91619819D02*
X197875000Y-91143628D01*
X197636905Y-91619819D02*
X197636905Y-90619819D01*
X197636905Y-90619819D02*
X198017857Y-90619819D01*
X198017857Y-90619819D02*
X198113095Y-90667438D01*
X198113095Y-90667438D02*
X198160714Y-90715057D01*
X198160714Y-90715057D02*
X198208333Y-90810295D01*
X198208333Y-90810295D02*
X198208333Y-90953152D01*
X198208333Y-90953152D02*
X198160714Y-91048390D01*
X198160714Y-91048390D02*
X198113095Y-91096009D01*
X198113095Y-91096009D02*
X198017857Y-91143628D01*
X198017857Y-91143628D02*
X197636905Y-91143628D01*
X198779762Y-91048390D02*
X198684524Y-91000771D01*
X198684524Y-91000771D02*
X198636905Y-90953152D01*
X198636905Y-90953152D02*
X198589286Y-90857914D01*
X198589286Y-90857914D02*
X198589286Y-90810295D01*
X198589286Y-90810295D02*
X198636905Y-90715057D01*
X198636905Y-90715057D02*
X198684524Y-90667438D01*
X198684524Y-90667438D02*
X198779762Y-90619819D01*
X198779762Y-90619819D02*
X198970238Y-90619819D01*
X198970238Y-90619819D02*
X199065476Y-90667438D01*
X199065476Y-90667438D02*
X199113095Y-90715057D01*
X199113095Y-90715057D02*
X199160714Y-90810295D01*
X199160714Y-90810295D02*
X199160714Y-90857914D01*
X199160714Y-90857914D02*
X199113095Y-90953152D01*
X199113095Y-90953152D02*
X199065476Y-91000771D01*
X199065476Y-91000771D02*
X198970238Y-91048390D01*
X198970238Y-91048390D02*
X198779762Y-91048390D01*
X198779762Y-91048390D02*
X198684524Y-91096009D01*
X198684524Y-91096009D02*
X198636905Y-91143628D01*
X198636905Y-91143628D02*
X198589286Y-91238866D01*
X198589286Y-91238866D02*
X198589286Y-91429342D01*
X198589286Y-91429342D02*
X198636905Y-91524580D01*
X198636905Y-91524580D02*
X198684524Y-91572200D01*
X198684524Y-91572200D02*
X198779762Y-91619819D01*
X198779762Y-91619819D02*
X198970238Y-91619819D01*
X198970238Y-91619819D02*
X199065476Y-91572200D01*
X199065476Y-91572200D02*
X199113095Y-91524580D01*
X199113095Y-91524580D02*
X199160714Y-91429342D01*
X199160714Y-91429342D02*
X199160714Y-91238866D01*
X199160714Y-91238866D02*
X199113095Y-91143628D01*
X199113095Y-91143628D02*
X199065476Y-91096009D01*
X199065476Y-91096009D02*
X198970238Y-91048390D01*
X197632142Y-80144819D02*
X197298809Y-79668628D01*
X197060714Y-80144819D02*
X197060714Y-79144819D01*
X197060714Y-79144819D02*
X197441666Y-79144819D01*
X197441666Y-79144819D02*
X197536904Y-79192438D01*
X197536904Y-79192438D02*
X197584523Y-79240057D01*
X197584523Y-79240057D02*
X197632142Y-79335295D01*
X197632142Y-79335295D02*
X197632142Y-79478152D01*
X197632142Y-79478152D02*
X197584523Y-79573390D01*
X197584523Y-79573390D02*
X197536904Y-79621009D01*
X197536904Y-79621009D02*
X197441666Y-79668628D01*
X197441666Y-79668628D02*
X197060714Y-79668628D01*
X198584523Y-80144819D02*
X198013095Y-80144819D01*
X198298809Y-80144819D02*
X198298809Y-79144819D01*
X198298809Y-79144819D02*
X198203571Y-79287676D01*
X198203571Y-79287676D02*
X198108333Y-79382914D01*
X198108333Y-79382914D02*
X198013095Y-79430533D01*
X199441666Y-79144819D02*
X199251190Y-79144819D01*
X199251190Y-79144819D02*
X199155952Y-79192438D01*
X199155952Y-79192438D02*
X199108333Y-79240057D01*
X199108333Y-79240057D02*
X199013095Y-79382914D01*
X199013095Y-79382914D02*
X198965476Y-79573390D01*
X198965476Y-79573390D02*
X198965476Y-79954342D01*
X198965476Y-79954342D02*
X199013095Y-80049580D01*
X199013095Y-80049580D02*
X199060714Y-80097200D01*
X199060714Y-80097200D02*
X199155952Y-80144819D01*
X199155952Y-80144819D02*
X199346428Y-80144819D01*
X199346428Y-80144819D02*
X199441666Y-80097200D01*
X199441666Y-80097200D02*
X199489285Y-80049580D01*
X199489285Y-80049580D02*
X199536904Y-79954342D01*
X199536904Y-79954342D02*
X199536904Y-79716247D01*
X199536904Y-79716247D02*
X199489285Y-79621009D01*
X199489285Y-79621009D02*
X199441666Y-79573390D01*
X199441666Y-79573390D02*
X199346428Y-79525771D01*
X199346428Y-79525771D02*
X199155952Y-79525771D01*
X199155952Y-79525771D02*
X199060714Y-79573390D01*
X199060714Y-79573390D02*
X199013095Y-79621009D01*
X199013095Y-79621009D02*
X198965476Y-79716247D01*
X197482142Y-69749819D02*
X197148809Y-69273628D01*
X196910714Y-69749819D02*
X196910714Y-68749819D01*
X196910714Y-68749819D02*
X197291666Y-68749819D01*
X197291666Y-68749819D02*
X197386904Y-68797438D01*
X197386904Y-68797438D02*
X197434523Y-68845057D01*
X197434523Y-68845057D02*
X197482142Y-68940295D01*
X197482142Y-68940295D02*
X197482142Y-69083152D01*
X197482142Y-69083152D02*
X197434523Y-69178390D01*
X197434523Y-69178390D02*
X197386904Y-69226009D01*
X197386904Y-69226009D02*
X197291666Y-69273628D01*
X197291666Y-69273628D02*
X196910714Y-69273628D01*
X198434523Y-69749819D02*
X197863095Y-69749819D01*
X198148809Y-69749819D02*
X198148809Y-68749819D01*
X198148809Y-68749819D02*
X198053571Y-68892676D01*
X198053571Y-68892676D02*
X197958333Y-68987914D01*
X197958333Y-68987914D02*
X197863095Y-69035533D01*
X199339285Y-68749819D02*
X198863095Y-68749819D01*
X198863095Y-68749819D02*
X198815476Y-69226009D01*
X198815476Y-69226009D02*
X198863095Y-69178390D01*
X198863095Y-69178390D02*
X198958333Y-69130771D01*
X198958333Y-69130771D02*
X199196428Y-69130771D01*
X199196428Y-69130771D02*
X199291666Y-69178390D01*
X199291666Y-69178390D02*
X199339285Y-69226009D01*
X199339285Y-69226009D02*
X199386904Y-69321247D01*
X199386904Y-69321247D02*
X199386904Y-69559342D01*
X199386904Y-69559342D02*
X199339285Y-69654580D01*
X199339285Y-69654580D02*
X199291666Y-69702200D01*
X199291666Y-69702200D02*
X199196428Y-69749819D01*
X199196428Y-69749819D02*
X198958333Y-69749819D01*
X198958333Y-69749819D02*
X198863095Y-69702200D01*
X198863095Y-69702200D02*
X198815476Y-69654580D01*
X167109819Y-55941666D02*
X166633628Y-56274999D01*
X167109819Y-56513094D02*
X166109819Y-56513094D01*
X166109819Y-56513094D02*
X166109819Y-56132142D01*
X166109819Y-56132142D02*
X166157438Y-56036904D01*
X166157438Y-56036904D02*
X166205057Y-55989285D01*
X166205057Y-55989285D02*
X166300295Y-55941666D01*
X166300295Y-55941666D02*
X166443152Y-55941666D01*
X166443152Y-55941666D02*
X166538390Y-55989285D01*
X166538390Y-55989285D02*
X166586009Y-56036904D01*
X166586009Y-56036904D02*
X166633628Y-56132142D01*
X166633628Y-56132142D02*
X166633628Y-56513094D01*
X167109819Y-54989285D02*
X167109819Y-55560713D01*
X167109819Y-55274999D02*
X166109819Y-55274999D01*
X166109819Y-55274999D02*
X166252676Y-55370237D01*
X166252676Y-55370237D02*
X166347914Y-55465475D01*
X166347914Y-55465475D02*
X166395533Y-55560713D01*
X206460595Y-71928319D02*
X206460595Y-72737842D01*
X206460595Y-72737842D02*
X206508214Y-72833080D01*
X206508214Y-72833080D02*
X206555833Y-72880700D01*
X206555833Y-72880700D02*
X206651071Y-72928319D01*
X206651071Y-72928319D02*
X206841547Y-72928319D01*
X206841547Y-72928319D02*
X206936785Y-72880700D01*
X206936785Y-72880700D02*
X206984404Y-72833080D01*
X206984404Y-72833080D02*
X207032023Y-72737842D01*
X207032023Y-72737842D02*
X207032023Y-71928319D01*
X207984404Y-71928319D02*
X207508214Y-71928319D01*
X207508214Y-71928319D02*
X207460595Y-72404509D01*
X207460595Y-72404509D02*
X207508214Y-72356890D01*
X207508214Y-72356890D02*
X207603452Y-72309271D01*
X207603452Y-72309271D02*
X207841547Y-72309271D01*
X207841547Y-72309271D02*
X207936785Y-72356890D01*
X207936785Y-72356890D02*
X207984404Y-72404509D01*
X207984404Y-72404509D02*
X208032023Y-72499747D01*
X208032023Y-72499747D02*
X208032023Y-72737842D01*
X208032023Y-72737842D02*
X207984404Y-72833080D01*
X207984404Y-72833080D02*
X207936785Y-72880700D01*
X207936785Y-72880700D02*
X207841547Y-72928319D01*
X207841547Y-72928319D02*
X207603452Y-72928319D01*
X207603452Y-72928319D02*
X207508214Y-72880700D01*
X207508214Y-72880700D02*
X207460595Y-72833080D01*
X174409819Y-56066666D02*
X173933628Y-56399999D01*
X174409819Y-56638094D02*
X173409819Y-56638094D01*
X173409819Y-56638094D02*
X173409819Y-56257142D01*
X173409819Y-56257142D02*
X173457438Y-56161904D01*
X173457438Y-56161904D02*
X173505057Y-56114285D01*
X173505057Y-56114285D02*
X173600295Y-56066666D01*
X173600295Y-56066666D02*
X173743152Y-56066666D01*
X173743152Y-56066666D02*
X173838390Y-56114285D01*
X173838390Y-56114285D02*
X173886009Y-56161904D01*
X173886009Y-56161904D02*
X173933628Y-56257142D01*
X173933628Y-56257142D02*
X173933628Y-56638094D01*
X173505057Y-55685713D02*
X173457438Y-55638094D01*
X173457438Y-55638094D02*
X173409819Y-55542856D01*
X173409819Y-55542856D02*
X173409819Y-55304761D01*
X173409819Y-55304761D02*
X173457438Y-55209523D01*
X173457438Y-55209523D02*
X173505057Y-55161904D01*
X173505057Y-55161904D02*
X173600295Y-55114285D01*
X173600295Y-55114285D02*
X173695533Y-55114285D01*
X173695533Y-55114285D02*
X173838390Y-55161904D01*
X173838390Y-55161904D02*
X174409819Y-55733332D01*
X174409819Y-55733332D02*
X174409819Y-55114285D01*
X116377319Y-70033333D02*
X117091604Y-70033333D01*
X117091604Y-70033333D02*
X117234461Y-70080952D01*
X117234461Y-70080952D02*
X117329700Y-70176190D01*
X117329700Y-70176190D02*
X117377319Y-70319047D01*
X117377319Y-70319047D02*
X117377319Y-70414285D01*
X117377319Y-69033333D02*
X117377319Y-69604761D01*
X117377319Y-69319047D02*
X116377319Y-69319047D01*
X116377319Y-69319047D02*
X116520176Y-69414285D01*
X116520176Y-69414285D02*
X116615414Y-69509523D01*
X116615414Y-69509523D02*
X116663033Y-69604761D01*
X156963095Y-71134819D02*
X156963095Y-71944342D01*
X156963095Y-71944342D02*
X157010714Y-72039580D01*
X157010714Y-72039580D02*
X157058333Y-72087200D01*
X157058333Y-72087200D02*
X157153571Y-72134819D01*
X157153571Y-72134819D02*
X157344047Y-72134819D01*
X157344047Y-72134819D02*
X157439285Y-72087200D01*
X157439285Y-72087200D02*
X157486904Y-72039580D01*
X157486904Y-72039580D02*
X157534523Y-71944342D01*
X157534523Y-71944342D02*
X157534523Y-71134819D01*
X157963095Y-71230057D02*
X158010714Y-71182438D01*
X158010714Y-71182438D02*
X158105952Y-71134819D01*
X158105952Y-71134819D02*
X158344047Y-71134819D01*
X158344047Y-71134819D02*
X158439285Y-71182438D01*
X158439285Y-71182438D02*
X158486904Y-71230057D01*
X158486904Y-71230057D02*
X158534523Y-71325295D01*
X158534523Y-71325295D02*
X158534523Y-71420533D01*
X158534523Y-71420533D02*
X158486904Y-71563390D01*
X158486904Y-71563390D02*
X157915476Y-72134819D01*
X157915476Y-72134819D02*
X158534523Y-72134819D01*
X180849819Y-104442857D02*
X180373628Y-104776190D01*
X180849819Y-105014285D02*
X179849819Y-105014285D01*
X179849819Y-105014285D02*
X179849819Y-104633333D01*
X179849819Y-104633333D02*
X179897438Y-104538095D01*
X179897438Y-104538095D02*
X179945057Y-104490476D01*
X179945057Y-104490476D02*
X180040295Y-104442857D01*
X180040295Y-104442857D02*
X180183152Y-104442857D01*
X180183152Y-104442857D02*
X180278390Y-104490476D01*
X180278390Y-104490476D02*
X180326009Y-104538095D01*
X180326009Y-104538095D02*
X180373628Y-104633333D01*
X180373628Y-104633333D02*
X180373628Y-105014285D01*
X180849819Y-103490476D02*
X180849819Y-104061904D01*
X180849819Y-103776190D02*
X179849819Y-103776190D01*
X179849819Y-103776190D02*
X179992676Y-103871428D01*
X179992676Y-103871428D02*
X180087914Y-103966666D01*
X180087914Y-103966666D02*
X180135533Y-104061904D01*
X180849819Y-102538095D02*
X180849819Y-103109523D01*
X180849819Y-102823809D02*
X179849819Y-102823809D01*
X179849819Y-102823809D02*
X179992676Y-102919047D01*
X179992676Y-102919047D02*
X180087914Y-103014285D01*
X180087914Y-103014285D02*
X180135533Y-103109523D01*
X150159580Y-57391666D02*
X150207200Y-57439285D01*
X150207200Y-57439285D02*
X150254819Y-57582142D01*
X150254819Y-57582142D02*
X150254819Y-57677380D01*
X150254819Y-57677380D02*
X150207200Y-57820237D01*
X150207200Y-57820237D02*
X150111961Y-57915475D01*
X150111961Y-57915475D02*
X150016723Y-57963094D01*
X150016723Y-57963094D02*
X149826247Y-58010713D01*
X149826247Y-58010713D02*
X149683390Y-58010713D01*
X149683390Y-58010713D02*
X149492914Y-57963094D01*
X149492914Y-57963094D02*
X149397676Y-57915475D01*
X149397676Y-57915475D02*
X149302438Y-57820237D01*
X149302438Y-57820237D02*
X149254819Y-57677380D01*
X149254819Y-57677380D02*
X149254819Y-57582142D01*
X149254819Y-57582142D02*
X149302438Y-57439285D01*
X149302438Y-57439285D02*
X149350057Y-57391666D01*
X149350057Y-57010713D02*
X149302438Y-56963094D01*
X149302438Y-56963094D02*
X149254819Y-56867856D01*
X149254819Y-56867856D02*
X149254819Y-56629761D01*
X149254819Y-56629761D02*
X149302438Y-56534523D01*
X149302438Y-56534523D02*
X149350057Y-56486904D01*
X149350057Y-56486904D02*
X149445295Y-56439285D01*
X149445295Y-56439285D02*
X149540533Y-56439285D01*
X149540533Y-56439285D02*
X149683390Y-56486904D01*
X149683390Y-56486904D02*
X150254819Y-57058332D01*
X150254819Y-57058332D02*
X150254819Y-56439285D01*
X143211905Y-50634819D02*
X143211905Y-49634819D01*
X143211905Y-49634819D02*
X143450000Y-49634819D01*
X143450000Y-49634819D02*
X143592857Y-49682438D01*
X143592857Y-49682438D02*
X143688095Y-49777676D01*
X143688095Y-49777676D02*
X143735714Y-49872914D01*
X143735714Y-49872914D02*
X143783333Y-50063390D01*
X143783333Y-50063390D02*
X143783333Y-50206247D01*
X143783333Y-50206247D02*
X143735714Y-50396723D01*
X143735714Y-50396723D02*
X143688095Y-50491961D01*
X143688095Y-50491961D02*
X143592857Y-50587200D01*
X143592857Y-50587200D02*
X143450000Y-50634819D01*
X143450000Y-50634819D02*
X143211905Y-50634819D01*
X144640476Y-49968152D02*
X144640476Y-50634819D01*
X144402381Y-49587200D02*
X144164286Y-50301485D01*
X144164286Y-50301485D02*
X144783333Y-50301485D01*
X137338095Y-51004819D02*
X137338095Y-50004819D01*
X137909523Y-51004819D02*
X137480952Y-50433390D01*
X137909523Y-50004819D02*
X137338095Y-50576247D01*
X201888095Y-111104819D02*
X201888095Y-110104819D01*
X201888095Y-110581009D02*
X202459523Y-110581009D01*
X202459523Y-111104819D02*
X202459523Y-110104819D01*
X203364285Y-110438152D02*
X203364285Y-111104819D01*
X203126190Y-110057200D02*
X202888095Y-110771485D01*
X202888095Y-110771485D02*
X203507142Y-110771485D01*
X117799819Y-92192857D02*
X117323628Y-92526190D01*
X117799819Y-92764285D02*
X116799819Y-92764285D01*
X116799819Y-92764285D02*
X116799819Y-92383333D01*
X116799819Y-92383333D02*
X116847438Y-92288095D01*
X116847438Y-92288095D02*
X116895057Y-92240476D01*
X116895057Y-92240476D02*
X116990295Y-92192857D01*
X116990295Y-92192857D02*
X117133152Y-92192857D01*
X117133152Y-92192857D02*
X117228390Y-92240476D01*
X117228390Y-92240476D02*
X117276009Y-92288095D01*
X117276009Y-92288095D02*
X117323628Y-92383333D01*
X117323628Y-92383333D02*
X117323628Y-92764285D01*
X117799819Y-91240476D02*
X117799819Y-91811904D01*
X117799819Y-91526190D02*
X116799819Y-91526190D01*
X116799819Y-91526190D02*
X116942676Y-91621428D01*
X116942676Y-91621428D02*
X117037914Y-91716666D01*
X117037914Y-91716666D02*
X117085533Y-91811904D01*
X117799819Y-90764285D02*
X117799819Y-90573809D01*
X117799819Y-90573809D02*
X117752200Y-90478571D01*
X117752200Y-90478571D02*
X117704580Y-90430952D01*
X117704580Y-90430952D02*
X117561723Y-90335714D01*
X117561723Y-90335714D02*
X117371247Y-90288095D01*
X117371247Y-90288095D02*
X116990295Y-90288095D01*
X116990295Y-90288095D02*
X116895057Y-90335714D01*
X116895057Y-90335714D02*
X116847438Y-90383333D01*
X116847438Y-90383333D02*
X116799819Y-90478571D01*
X116799819Y-90478571D02*
X116799819Y-90669047D01*
X116799819Y-90669047D02*
X116847438Y-90764285D01*
X116847438Y-90764285D02*
X116895057Y-90811904D01*
X116895057Y-90811904D02*
X116990295Y-90859523D01*
X116990295Y-90859523D02*
X117228390Y-90859523D01*
X117228390Y-90859523D02*
X117323628Y-90811904D01*
X117323628Y-90811904D02*
X117371247Y-90764285D01*
X117371247Y-90764285D02*
X117418866Y-90669047D01*
X117418866Y-90669047D02*
X117418866Y-90478571D01*
X117418866Y-90478571D02*
X117371247Y-90383333D01*
X117371247Y-90383333D02*
X117323628Y-90335714D01*
X117323628Y-90335714D02*
X117228390Y-90288095D01*
X144247200Y-82648332D02*
X144294819Y-82505475D01*
X144294819Y-82505475D02*
X144294819Y-82267380D01*
X144294819Y-82267380D02*
X144247200Y-82172142D01*
X144247200Y-82172142D02*
X144199580Y-82124523D01*
X144199580Y-82124523D02*
X144104342Y-82076904D01*
X144104342Y-82076904D02*
X144009104Y-82076904D01*
X144009104Y-82076904D02*
X143913866Y-82124523D01*
X143913866Y-82124523D02*
X143866247Y-82172142D01*
X143866247Y-82172142D02*
X143818628Y-82267380D01*
X143818628Y-82267380D02*
X143771009Y-82457856D01*
X143771009Y-82457856D02*
X143723390Y-82553094D01*
X143723390Y-82553094D02*
X143675771Y-82600713D01*
X143675771Y-82600713D02*
X143580533Y-82648332D01*
X143580533Y-82648332D02*
X143485295Y-82648332D01*
X143485295Y-82648332D02*
X143390057Y-82600713D01*
X143390057Y-82600713D02*
X143342438Y-82553094D01*
X143342438Y-82553094D02*
X143294819Y-82457856D01*
X143294819Y-82457856D02*
X143294819Y-82219761D01*
X143294819Y-82219761D02*
X143342438Y-82076904D01*
X143294819Y-81743570D02*
X144294819Y-81505475D01*
X144294819Y-81505475D02*
X143580533Y-81314999D01*
X143580533Y-81314999D02*
X144294819Y-81124523D01*
X144294819Y-81124523D02*
X143294819Y-80886428D01*
X143390057Y-80553094D02*
X143342438Y-80505475D01*
X143342438Y-80505475D02*
X143294819Y-80410237D01*
X143294819Y-80410237D02*
X143294819Y-80172142D01*
X143294819Y-80172142D02*
X143342438Y-80076904D01*
X143342438Y-80076904D02*
X143390057Y-80029285D01*
X143390057Y-80029285D02*
X143485295Y-79981666D01*
X143485295Y-79981666D02*
X143580533Y-79981666D01*
X143580533Y-79981666D02*
X143723390Y-80029285D01*
X143723390Y-80029285D02*
X144294819Y-80600713D01*
X144294819Y-80600713D02*
X144294819Y-79981666D01*
D11*
%TO.C,C1*%
X129420000Y-56385000D02*
X130960000Y-56385000D01*
X129420000Y-56425000D02*
X130960000Y-56425000D01*
X129421000Y-56345000D02*
X130960000Y-56345000D01*
X129423000Y-56305000D02*
X130960000Y-56305000D01*
X129425000Y-56265000D02*
X130960000Y-56265000D01*
X129428000Y-56225000D02*
X130960000Y-56225000D01*
X129431000Y-56185000D02*
X130960000Y-56185000D01*
X129435000Y-56145000D02*
X130960000Y-56145000D01*
X129440000Y-56105000D02*
X130960000Y-56105000D01*
X129445000Y-56065000D02*
X130960000Y-56065000D01*
X129451000Y-56025000D02*
X130960000Y-56025000D01*
X129457000Y-55985000D02*
X130960000Y-55985000D01*
X129464000Y-55945000D02*
X130960000Y-55945000D01*
X129472000Y-55905000D02*
X130960000Y-55905000D01*
X129481000Y-55865000D02*
X130960000Y-55865000D01*
X129490000Y-55825000D02*
X130960000Y-55825000D01*
X129499000Y-55785000D02*
X130960000Y-55785000D01*
X129510000Y-55745000D02*
X130960000Y-55745000D01*
X129521000Y-55705000D02*
X130960000Y-55705000D01*
X129533000Y-55665000D02*
X130960000Y-55665000D01*
X129545000Y-55625000D02*
X130960000Y-55625000D01*
X129558000Y-55585000D02*
X130960000Y-55585000D01*
X129572000Y-55545000D02*
X130960000Y-55545000D01*
X129587000Y-55505000D02*
X130960000Y-55505000D01*
X129602000Y-55465000D02*
X130960000Y-55465000D01*
X129618000Y-55425000D02*
X130960000Y-55425000D01*
X129635000Y-55385000D02*
X130960000Y-55385000D01*
X129653000Y-55345000D02*
X130960000Y-55345000D01*
X129671000Y-55305000D02*
X130960000Y-55305000D01*
X129691000Y-55265000D02*
X130960000Y-55265000D01*
X129711000Y-55225000D02*
X130960000Y-55225000D01*
X129732000Y-55185000D02*
X130960000Y-55185000D01*
X129754000Y-55145000D02*
X130960000Y-55145000D01*
X129777000Y-55105000D02*
X130960000Y-55105000D01*
X129801000Y-55065000D02*
X130960000Y-55065000D01*
X129825000Y-55025000D02*
X130960000Y-55025000D01*
X129851000Y-54985000D02*
X130960000Y-54985000D01*
X129878000Y-54945000D02*
X130960000Y-54945000D01*
X129906000Y-54905000D02*
X130960000Y-54905000D01*
X129935000Y-54865000D02*
X130960000Y-54865000D01*
X129965000Y-54825000D02*
X130960000Y-54825000D01*
X129997000Y-54785000D02*
X130960000Y-54785000D01*
X130030000Y-54745000D02*
X130960000Y-54745000D01*
X130064000Y-54705000D02*
X130960000Y-54705000D01*
X130099000Y-54665000D02*
X130960000Y-54665000D01*
X130136000Y-54625000D02*
X130960000Y-54625000D01*
X130175000Y-54585000D02*
X130960000Y-54585000D01*
X130215000Y-54545000D02*
X130960000Y-54545000D01*
X130257000Y-54505000D02*
X130960000Y-54505000D01*
X130275000Y-58979775D02*
X130775000Y-58979775D01*
X130301000Y-54465000D02*
X130960000Y-54465000D01*
X130348000Y-54425000D02*
X130960000Y-54425000D01*
X130396000Y-54385000D02*
X133604000Y-54385000D01*
X130447000Y-54345000D02*
X133553000Y-54345000D01*
X130501000Y-54305000D02*
X133499000Y-54305000D01*
X130525000Y-59229775D02*
X130525000Y-58729775D01*
X130557000Y-54265000D02*
X133443000Y-54265000D01*
X130617000Y-54225000D02*
X133383000Y-54225000D01*
X130681000Y-54185000D02*
X133319000Y-54185000D01*
X130749000Y-54145000D02*
X133251000Y-54145000D01*
X130823000Y-54105000D02*
X133177000Y-54105000D01*
X130902000Y-54065000D02*
X133098000Y-54065000D01*
X130989000Y-54025000D02*
X133011000Y-54025000D01*
X131086000Y-53985000D02*
X132914000Y-53985000D01*
X131195000Y-53945000D02*
X132805000Y-53945000D01*
X131323000Y-53905000D02*
X132677000Y-53905000D01*
X131483000Y-53865000D02*
X132517000Y-53865000D01*
X131717000Y-53825000D02*
X132283000Y-53825000D01*
X133040000Y-54425000D02*
X133652000Y-54425000D01*
X133040000Y-54465000D02*
X133699000Y-54465000D01*
X133040000Y-54505000D02*
X133743000Y-54505000D01*
X133040000Y-54545000D02*
X133785000Y-54545000D01*
X133040000Y-54585000D02*
X133825000Y-54585000D01*
X133040000Y-54625000D02*
X133864000Y-54625000D01*
X133040000Y-54665000D02*
X133901000Y-54665000D01*
X133040000Y-54705000D02*
X133936000Y-54705000D01*
X133040000Y-54745000D02*
X133970000Y-54745000D01*
X133040000Y-54785000D02*
X134003000Y-54785000D01*
X133040000Y-54825000D02*
X134035000Y-54825000D01*
X133040000Y-54865000D02*
X134065000Y-54865000D01*
X133040000Y-54905000D02*
X134094000Y-54905000D01*
X133040000Y-54945000D02*
X134122000Y-54945000D01*
X133040000Y-54985000D02*
X134149000Y-54985000D01*
X133040000Y-55025000D02*
X134175000Y-55025000D01*
X133040000Y-55065000D02*
X134199000Y-55065000D01*
X133040000Y-55105000D02*
X134223000Y-55105000D01*
X133040000Y-55145000D02*
X134246000Y-55145000D01*
X133040000Y-55185000D02*
X134268000Y-55185000D01*
X133040000Y-55225000D02*
X134289000Y-55225000D01*
X133040000Y-55265000D02*
X134309000Y-55265000D01*
X133040000Y-55305000D02*
X134329000Y-55305000D01*
X133040000Y-55345000D02*
X134347000Y-55345000D01*
X133040000Y-55385000D02*
X134365000Y-55385000D01*
X133040000Y-55425000D02*
X134382000Y-55425000D01*
X133040000Y-55465000D02*
X134398000Y-55465000D01*
X133040000Y-55505000D02*
X134413000Y-55505000D01*
X133040000Y-55545000D02*
X134428000Y-55545000D01*
X133040000Y-55585000D02*
X134442000Y-55585000D01*
X133040000Y-55625000D02*
X134455000Y-55625000D01*
X133040000Y-55665000D02*
X134467000Y-55665000D01*
X133040000Y-55705000D02*
X134479000Y-55705000D01*
X133040000Y-55745000D02*
X134490000Y-55745000D01*
X133040000Y-55785000D02*
X134501000Y-55785000D01*
X133040000Y-55825000D02*
X134510000Y-55825000D01*
X133040000Y-55865000D02*
X134519000Y-55865000D01*
X133040000Y-55905000D02*
X134528000Y-55905000D01*
X133040000Y-55945000D02*
X134536000Y-55945000D01*
X133040000Y-55985000D02*
X134543000Y-55985000D01*
X133040000Y-56025000D02*
X134549000Y-56025000D01*
X133040000Y-56065000D02*
X134555000Y-56065000D01*
X133040000Y-56105000D02*
X134560000Y-56105000D01*
X133040000Y-56145000D02*
X134565000Y-56145000D01*
X133040000Y-56185000D02*
X134569000Y-56185000D01*
X133040000Y-56225000D02*
X134572000Y-56225000D01*
X133040000Y-56265000D02*
X134575000Y-56265000D01*
X133040000Y-56305000D02*
X134577000Y-56305000D01*
X133040000Y-56345000D02*
X134579000Y-56345000D01*
X133040000Y-56385000D02*
X134580000Y-56385000D01*
X133040000Y-56425000D02*
X134580000Y-56425000D01*
X134620000Y-56425000D02*
G75*
G02*
X129380000Y-56425000I-2620000J0D01*
G01*
X129380000Y-56425000D02*
G75*
G02*
X134620000Y-56425000I2620000J0D01*
G01*
%TO.C,U1*%
X140265000Y-56825000D02*
X140265000Y-67105000D01*
X140265000Y-67105000D02*
X141515000Y-67105000D01*
X143515000Y-67105000D02*
X144765000Y-67105000D01*
X144765000Y-56825000D02*
X140265000Y-56825000D01*
X144765000Y-67105000D02*
X144765000Y-56825000D01*
X147765000Y-67165000D02*
X137265000Y-67165000D01*
X137265000Y-56765000D01*
X147765000Y-56765000D01*
X147765000Y-67165000D01*
X141515000Y-67105000D02*
G75*
G02*
X143515000Y-67105000I1000000J0D01*
G01*
%TO.C,C3*%
X156115000Y-104998752D02*
X156115000Y-103576248D01*
X157935000Y-104998752D02*
X157935000Y-103576248D01*
%TO.C,R6*%
X197547936Y-88540000D02*
X199002064Y-88540000D01*
X197547936Y-90360000D02*
X199002064Y-90360000D01*
%TO.C,R12*%
X186290000Y-104677064D02*
X186290000Y-103222936D01*
X188110000Y-104677064D02*
X188110000Y-103222936D01*
%TO.C,L1*%
X156970000Y-64975000D02*
G75*
G02*
X149530000Y-64975000I-3720000J0D01*
G01*
X149530000Y-64975000D02*
G75*
G02*
X156970000Y-64975000I3720000J0D01*
G01*
%TO.C,C4*%
X127088748Y-94890000D02*
X128511252Y-94890000D01*
X127088748Y-96710000D02*
X128511252Y-96710000D01*
%TO.C,R14*%
X197647936Y-95335000D02*
X199102064Y-95335000D01*
X197647936Y-97155000D02*
X199102064Y-97155000D01*
%TO.C,R9*%
X171540000Y-104577064D02*
X171540000Y-103122936D01*
X173360000Y-104577064D02*
X173360000Y-103122936D01*
%TO.C,U7*%
X125455000Y-82885000D02*
X125455000Y-93165000D01*
X125455000Y-93165000D02*
X130755000Y-93165000D01*
X127105000Y-82885000D02*
X125455000Y-82885000D01*
X130755000Y-82885000D02*
X129105000Y-82885000D01*
X130755000Y-93165000D02*
X130755000Y-82885000D01*
X129105000Y-82885000D02*
G75*
G02*
X127105000Y-82885000I-1000000J0D01*
G01*
%TO.C,SW1*%
X162875000Y-112675000D02*
X162875000Y-114175000D01*
X164125000Y-116675000D02*
X168625000Y-116675000D01*
X168625000Y-110175000D02*
X164125000Y-110175000D01*
X169875000Y-114175000D02*
X169875000Y-112675000D01*
%TO.C,D3*%
X181935000Y-64455000D02*
X181935000Y-67545000D01*
X181935000Y-64455170D02*
G75*
G02*
X187485000Y-66000000I2560000J-1544830D01*
G01*
X187485000Y-66000000D02*
G75*
G02*
X181935000Y-67544830I-2990000J0D01*
G01*
X186995000Y-66000000D02*
G75*
G02*
X181995000Y-66000000I-2500000J0D01*
G01*
X181995000Y-66000000D02*
G75*
G02*
X186995000Y-66000000I2500000J0D01*
G01*
%TO.C,C5*%
X133940000Y-87323752D02*
X133940000Y-85901248D01*
X135760000Y-87323752D02*
X135760000Y-85901248D01*
%TO.C,R7*%
X166340000Y-103247936D02*
X166340000Y-104702064D01*
X168160000Y-103247936D02*
X168160000Y-104702064D01*
%TO.C,D1*%
X166870000Y-64605000D02*
X166870000Y-67695000D01*
X166870000Y-64605170D02*
G75*
G02*
X172420000Y-66150000I2560000J-1544830D01*
G01*
X172420000Y-66150000D02*
G75*
G02*
X166870000Y-67694830I-2990000J0D01*
G01*
X171930000Y-66150000D02*
G75*
G02*
X166930000Y-66150000I-2500000J0D01*
G01*
X166930000Y-66150000D02*
G75*
G02*
X171930000Y-66150000I2500000J0D01*
G01*
%TO.C,R3*%
X183150000Y-51860000D02*
X183150000Y-52630000D01*
X183150000Y-59940000D02*
X183150000Y-59170000D01*
X181780000Y-59170000D02*
X184520000Y-59170000D01*
X184520000Y-52630000D01*
X181780000Y-52630000D01*
X181780000Y-59170000D01*
%TO.C,D2*%
X174685000Y-64455000D02*
X174685000Y-67545000D01*
X174685000Y-64455170D02*
G75*
G02*
X180235000Y-66000000I2560000J-1544830D01*
G01*
X180235000Y-66000000D02*
G75*
G02*
X174685000Y-67544830I-2990000J0D01*
G01*
X179745000Y-66000000D02*
G75*
G02*
X174745000Y-66000000I-2500000J0D01*
G01*
X174745000Y-66000000D02*
G75*
G02*
X179745000Y-66000000I2500000J0D01*
G01*
%TO.C,D5*%
X189435000Y-64455000D02*
X189435000Y-67545000D01*
X189435000Y-64455170D02*
G75*
G02*
X194985000Y-66000000I2560000J-1544830D01*
G01*
X194985000Y-66000000D02*
G75*
G02*
X189435000Y-67544830I-2990000J0D01*
G01*
X194495000Y-66000000D02*
G75*
G02*
X189495000Y-66000000I-2500000J0D01*
G01*
X189495000Y-66000000D02*
G75*
G02*
X194495000Y-66000000I2500000J0D01*
G01*
%TO.C,R17*%
X197297936Y-73240000D02*
X198752064Y-73240000D01*
X197297936Y-75060000D02*
X198752064Y-75060000D01*
%TO.C,R20*%
X118265000Y-85327064D02*
X118265000Y-83872936D01*
X120085000Y-85327064D02*
X120085000Y-83872936D01*
%TO.C,R18*%
X197047936Y-76490000D02*
X198502064Y-76490000D01*
X197047936Y-78310000D02*
X198502064Y-78310000D01*
%TO.C,U3*%
X169390000Y-72565000D02*
X169390000Y-93005000D01*
X169390000Y-93005000D02*
X173890000Y-93005000D01*
X170640000Y-72565000D02*
X169390000Y-72565000D01*
X173890000Y-72565000D02*
X172640000Y-72565000D01*
X173890000Y-93005000D02*
X173890000Y-72565000D01*
X166390000Y-72505000D02*
X176890000Y-72505000D01*
X176890000Y-93065000D01*
X166390000Y-93065000D01*
X166390000Y-72505000D01*
X172640000Y-72565000D02*
G75*
G02*
X170640000Y-72565000I-1000000J0D01*
G01*
%TO.C,U6*%
X148050000Y-78315000D02*
X147250000Y-78315000D01*
X148050000Y-78315000D02*
X148850000Y-78315000D01*
X148050000Y-81435000D02*
X147250000Y-81435000D01*
X148050000Y-81435000D02*
X148850000Y-81435000D01*
X146750000Y-78365000D02*
X146510000Y-78035000D01*
X146990000Y-78035000D01*
X146750000Y-78365000D01*
G36*
X146750000Y-78365000D02*
G01*
X146510000Y-78035000D01*
X146990000Y-78035000D01*
X146750000Y-78365000D01*
G37*
%TO.C,R10*%
X176390000Y-104577064D02*
X176390000Y-103122936D01*
X178210000Y-104577064D02*
X178210000Y-103122936D01*
%TO.C,R5*%
X197647936Y-84185000D02*
X199102064Y-84185000D01*
X197647936Y-86005000D02*
X199102064Y-86005000D01*
%TO.C,R13*%
X161465000Y-104852064D02*
X161465000Y-103397936D01*
X163285000Y-104852064D02*
X163285000Y-103397936D01*
%TO.C,U4*%
X185750000Y-72805000D02*
X185750000Y-93245000D01*
X185750000Y-93245000D02*
X190250000Y-93245000D01*
X187000000Y-72805000D02*
X185750000Y-72805000D01*
X190250000Y-72805000D02*
X189000000Y-72805000D01*
X190250000Y-93245000D02*
X190250000Y-72805000D01*
X182750000Y-72745000D02*
X193250000Y-72745000D01*
X193250000Y-93305000D01*
X182750000Y-93305000D01*
X182750000Y-72745000D01*
X189000000Y-72805000D02*
G75*
G02*
X187000000Y-72805000I-1000000J0D01*
G01*
%TO.C,R4*%
X190900000Y-51510000D02*
X190900000Y-52280000D01*
X190900000Y-59590000D02*
X190900000Y-58820000D01*
X189530000Y-58820000D02*
X192270000Y-58820000D01*
X192270000Y-52280000D01*
X189530000Y-52280000D01*
X189530000Y-58820000D01*
%TO.C,R8*%
X197647936Y-92085000D02*
X199102064Y-92085000D01*
X197647936Y-93905000D02*
X199102064Y-93905000D01*
%TO.C,R16*%
X197547936Y-80610000D02*
X199002064Y-80610000D01*
X197547936Y-82430000D02*
X199002064Y-82430000D01*
%TO.C,R15*%
X197397936Y-70215000D02*
X198852064Y-70215000D01*
X197397936Y-72035000D02*
X198852064Y-72035000D01*
%TO.C,R1*%
X169025000Y-51735000D02*
X169025000Y-52505000D01*
X169025000Y-59815000D02*
X169025000Y-59045000D01*
X167655000Y-59045000D02*
X170395000Y-59045000D01*
X170395000Y-52505000D01*
X167655000Y-52505000D01*
X167655000Y-59045000D01*
%TO.C,U5*%
X203052500Y-73002500D02*
X204682500Y-73002500D01*
X203052500Y-74632500D02*
X203052500Y-73002500D01*
D10*
X203412500Y-73362500D02*
X203412500Y-86062500D01*
X203412500Y-86062500D02*
X211032500Y-86062500D01*
X211032500Y-73362500D02*
X203412500Y-73362500D01*
X211032500Y-86062500D02*
X211032500Y-73362500D01*
D11*
%TO.C,R2*%
X176325000Y-51860000D02*
X176325000Y-52630000D01*
X176325000Y-59940000D02*
X176325000Y-59170000D01*
X174955000Y-59170000D02*
X177695000Y-59170000D01*
X177695000Y-52630000D01*
X174955000Y-52630000D01*
X174955000Y-59170000D01*
%TO.C,J1*%
X117922500Y-64580000D02*
X128662500Y-64580000D01*
X117922500Y-74820000D02*
X117922500Y-64580000D01*
X121542500Y-74820000D02*
X121542500Y-64580000D01*
X122542500Y-74820000D02*
X122542500Y-64580000D01*
X126542500Y-74820000D02*
X126542500Y-64580000D01*
X128662500Y-64580000D02*
X128662500Y-71900000D01*
X128662500Y-72500000D02*
X128662500Y-74820000D01*
X128662500Y-74820000D02*
X117922500Y-74820000D01*
X129272500Y-72640000D02*
X128662500Y-72200000D01*
X129272500Y-71760000D01*
X129272500Y-72640000D01*
G36*
X129272500Y-72640000D02*
G01*
X128662500Y-72200000D01*
X129272500Y-71760000D01*
X129272500Y-72640000D01*
G37*
%TO.C,U2*%
X155475000Y-72680000D02*
X155475000Y-93120000D01*
X155475000Y-93120000D02*
X159975000Y-93120000D01*
X156725000Y-72680000D02*
X155475000Y-72680000D01*
X159975000Y-72680000D02*
X158725000Y-72680000D01*
X159975000Y-93120000D02*
X159975000Y-72680000D01*
X152475000Y-72620000D02*
X162975000Y-72620000D01*
X162975000Y-93180000D01*
X152475000Y-93180000D01*
X152475000Y-72620000D01*
X158725000Y-72680000D02*
G75*
G02*
X156725000Y-72680000I-1000000J0D01*
G01*
%TO.C,R11*%
X181315000Y-104527064D02*
X181315000Y-103072936D01*
X183135000Y-104527064D02*
X183135000Y-103072936D01*
%TO.C,C2*%
X150970000Y-57185000D02*
X152510000Y-57185000D01*
X150970000Y-57225000D02*
X152510000Y-57225000D01*
X150971000Y-57145000D02*
X152510000Y-57145000D01*
X150973000Y-57105000D02*
X152510000Y-57105000D01*
X150975000Y-57065000D02*
X152510000Y-57065000D01*
X150978000Y-57025000D02*
X152510000Y-57025000D01*
X150981000Y-56985000D02*
X152510000Y-56985000D01*
X150985000Y-56945000D02*
X152510000Y-56945000D01*
X150990000Y-56905000D02*
X152510000Y-56905000D01*
X150995000Y-56865000D02*
X152510000Y-56865000D01*
X151001000Y-56825000D02*
X152510000Y-56825000D01*
X151007000Y-56785000D02*
X152510000Y-56785000D01*
X151014000Y-56745000D02*
X152510000Y-56745000D01*
X151022000Y-56705000D02*
X152510000Y-56705000D01*
X151031000Y-56665000D02*
X152510000Y-56665000D01*
X151040000Y-56625000D02*
X152510000Y-56625000D01*
X151049000Y-56585000D02*
X152510000Y-56585000D01*
X151060000Y-56545000D02*
X152510000Y-56545000D01*
X151071000Y-56505000D02*
X152510000Y-56505000D01*
X151083000Y-56465000D02*
X152510000Y-56465000D01*
X151095000Y-56425000D02*
X152510000Y-56425000D01*
X151108000Y-56385000D02*
X152510000Y-56385000D01*
X151122000Y-56345000D02*
X152510000Y-56345000D01*
X151137000Y-56305000D02*
X152510000Y-56305000D01*
X151152000Y-56265000D02*
X152510000Y-56265000D01*
X151168000Y-56225000D02*
X152510000Y-56225000D01*
X151185000Y-56185000D02*
X152510000Y-56185000D01*
X151203000Y-56145000D02*
X152510000Y-56145000D01*
X151221000Y-56105000D02*
X152510000Y-56105000D01*
X151241000Y-56065000D02*
X152510000Y-56065000D01*
X151261000Y-56025000D02*
X152510000Y-56025000D01*
X151282000Y-55985000D02*
X152510000Y-55985000D01*
X151304000Y-55945000D02*
X152510000Y-55945000D01*
X151327000Y-55905000D02*
X152510000Y-55905000D01*
X151351000Y-55865000D02*
X152510000Y-55865000D01*
X151375000Y-55825000D02*
X152510000Y-55825000D01*
X151401000Y-55785000D02*
X152510000Y-55785000D01*
X151428000Y-55745000D02*
X152510000Y-55745000D01*
X151456000Y-55705000D02*
X152510000Y-55705000D01*
X151485000Y-55665000D02*
X152510000Y-55665000D01*
X151515000Y-55625000D02*
X152510000Y-55625000D01*
X151547000Y-55585000D02*
X152510000Y-55585000D01*
X151580000Y-55545000D02*
X152510000Y-55545000D01*
X151614000Y-55505000D02*
X152510000Y-55505000D01*
X151649000Y-55465000D02*
X152510000Y-55465000D01*
X151686000Y-55425000D02*
X152510000Y-55425000D01*
X151725000Y-55385000D02*
X152510000Y-55385000D01*
X151765000Y-55345000D02*
X152510000Y-55345000D01*
X151807000Y-55305000D02*
X152510000Y-55305000D01*
X151825000Y-59779775D02*
X152325000Y-59779775D01*
X151851000Y-55265000D02*
X152510000Y-55265000D01*
X151898000Y-55225000D02*
X152510000Y-55225000D01*
X151946000Y-55185000D02*
X155154000Y-55185000D01*
X151997000Y-55145000D02*
X155103000Y-55145000D01*
X152051000Y-55105000D02*
X155049000Y-55105000D01*
X152075000Y-60029775D02*
X152075000Y-59529775D01*
X152107000Y-55065000D02*
X154993000Y-55065000D01*
X152167000Y-55025000D02*
X154933000Y-55025000D01*
X152231000Y-54985000D02*
X154869000Y-54985000D01*
X152299000Y-54945000D02*
X154801000Y-54945000D01*
X152373000Y-54905000D02*
X154727000Y-54905000D01*
X152452000Y-54865000D02*
X154648000Y-54865000D01*
X152539000Y-54825000D02*
X154561000Y-54825000D01*
X152636000Y-54785000D02*
X154464000Y-54785000D01*
X152745000Y-54745000D02*
X154355000Y-54745000D01*
X152873000Y-54705000D02*
X154227000Y-54705000D01*
X153033000Y-54665000D02*
X154067000Y-54665000D01*
X153267000Y-54625000D02*
X153833000Y-54625000D01*
X154590000Y-55225000D02*
X155202000Y-55225000D01*
X154590000Y-55265000D02*
X155249000Y-55265000D01*
X154590000Y-55305000D02*
X155293000Y-55305000D01*
X154590000Y-55345000D02*
X155335000Y-55345000D01*
X154590000Y-55385000D02*
X155375000Y-55385000D01*
X154590000Y-55425000D02*
X155414000Y-55425000D01*
X154590000Y-55465000D02*
X155451000Y-55465000D01*
X154590000Y-55505000D02*
X155486000Y-55505000D01*
X154590000Y-55545000D02*
X155520000Y-55545000D01*
X154590000Y-55585000D02*
X155553000Y-55585000D01*
X154590000Y-55625000D02*
X155585000Y-55625000D01*
X154590000Y-55665000D02*
X155615000Y-55665000D01*
X154590000Y-55705000D02*
X155644000Y-55705000D01*
X154590000Y-55745000D02*
X155672000Y-55745000D01*
X154590000Y-55785000D02*
X155699000Y-55785000D01*
X154590000Y-55825000D02*
X155725000Y-55825000D01*
X154590000Y-55865000D02*
X155749000Y-55865000D01*
X154590000Y-55905000D02*
X155773000Y-55905000D01*
X154590000Y-55945000D02*
X155796000Y-55945000D01*
X154590000Y-55985000D02*
X155818000Y-55985000D01*
X154590000Y-56025000D02*
X155839000Y-56025000D01*
X154590000Y-56065000D02*
X155859000Y-56065000D01*
X154590000Y-56105000D02*
X155879000Y-56105000D01*
X154590000Y-56145000D02*
X155897000Y-56145000D01*
X154590000Y-56185000D02*
X155915000Y-56185000D01*
X154590000Y-56225000D02*
X155932000Y-56225000D01*
X154590000Y-56265000D02*
X155948000Y-56265000D01*
X154590000Y-56305000D02*
X155963000Y-56305000D01*
X154590000Y-56345000D02*
X155978000Y-56345000D01*
X154590000Y-56385000D02*
X155992000Y-56385000D01*
X154590000Y-56425000D02*
X156005000Y-56425000D01*
X154590000Y-56465000D02*
X156017000Y-56465000D01*
X154590000Y-56505000D02*
X156029000Y-56505000D01*
X154590000Y-56545000D02*
X156040000Y-56545000D01*
X154590000Y-56585000D02*
X156051000Y-56585000D01*
X154590000Y-56625000D02*
X156060000Y-56625000D01*
X154590000Y-56665000D02*
X156069000Y-56665000D01*
X154590000Y-56705000D02*
X156078000Y-56705000D01*
X154590000Y-56745000D02*
X156086000Y-56745000D01*
X154590000Y-56785000D02*
X156093000Y-56785000D01*
X154590000Y-56825000D02*
X156099000Y-56825000D01*
X154590000Y-56865000D02*
X156105000Y-56865000D01*
X154590000Y-56905000D02*
X156110000Y-56905000D01*
X154590000Y-56945000D02*
X156115000Y-56945000D01*
X154590000Y-56985000D02*
X156119000Y-56985000D01*
X154590000Y-57025000D02*
X156122000Y-57025000D01*
X154590000Y-57065000D02*
X156125000Y-57065000D01*
X154590000Y-57105000D02*
X156127000Y-57105000D01*
X154590000Y-57145000D02*
X156129000Y-57145000D01*
X154590000Y-57185000D02*
X156130000Y-57185000D01*
X154590000Y-57225000D02*
X156130000Y-57225000D01*
X156170000Y-57225000D02*
G75*
G02*
X150930000Y-57225000I-2620000J0D01*
G01*
X150930000Y-57225000D02*
G75*
G02*
X156170000Y-57225000I2620000J0D01*
G01*
%TO.C,D4*%
X138940000Y-52650000D02*
X141230000Y-52650000D01*
X142010000Y-51180000D02*
X142010000Y-54120000D01*
X142130000Y-51180000D02*
X142130000Y-54120000D01*
X142250000Y-51180000D02*
X142250000Y-54120000D01*
X148960000Y-52650000D02*
X146670000Y-52650000D01*
X141230000Y-51180000D02*
X146670000Y-51180000D01*
X146670000Y-54120000D01*
X141230000Y-54120000D01*
X141230000Y-51180000D01*
%TO.C,R19*%
X118265000Y-92277064D02*
X118265000Y-90822936D01*
X120085000Y-92277064D02*
X120085000Y-90822936D01*
%TO.C,SW2*%
X138590000Y-74915000D02*
X138900000Y-74915000D01*
X138590000Y-83735000D02*
X138590000Y-74915000D01*
X138590000Y-83735000D02*
X138900000Y-83735000D01*
X142800000Y-74915000D02*
X143110000Y-74915000D01*
X143110000Y-74915000D02*
X143110000Y-83735000D01*
X143110000Y-83735000D02*
X142800000Y-83735000D01*
X143310000Y-77325000D02*
X143810000Y-77825000D01*
X143810000Y-76825000D02*
X143310000Y-77325000D01*
X143810000Y-77825000D02*
X143810000Y-76825000D01*
%TD*%
M02*
