%TF.GenerationSoftware,KiCad,Pcbnew,9.0.3*%
%TF.CreationDate,2025-12-16T11:33:00+01:00*%
%TF.ProjectId,PTP_Josip_Grgic_Project1,5054505f-4a6f-4736-9970-5f4772676963,rev?*%
%TF.SameCoordinates,Original*%
%TF.FileFunction,Paste,Top*%
%TF.FilePolarity,Positive*%
%FSLAX46Y46*%
G04 Gerber Fmt 4.6, Leading zero omitted, Abs format (unit mm)*
G04 Created by KiCad (PCBNEW 9.0.3) date 2025-12-16 11:33:00*
%MOMM*%
%LPD*%
G01*
G04 APERTURE LIST*
G04 Aperture macros list*
%AMRoundRect*
0 Rectangle with rounded corners*
0 $1 Rounding radius*
0 $2 $3 $4 $5 $6 $7 $8 $9 X,Y pos of 4 corners*
0 Add a 4 corners polygon primitive as box body*
4,1,4,$2,$3,$4,$5,$6,$7,$8,$9,$2,$3,0*
0 Add four circle primitives for the rounded corners*
1,1,$1+$1,$2,$3*
1,1,$1+$1,$4,$5*
1,1,$1+$1,$6,$7*
1,1,$1+$1,$8,$9*
0 Add four rect primitives between the rounded corners*
20,1,$1+$1,$2,$3,$4,$5,0*
20,1,$1+$1,$4,$5,$6,$7,0*
20,1,$1+$1,$6,$7,$8,$9,0*
20,1,$1+$1,$8,$9,$2,$3,0*%
G04 Aperture macros list end*
%ADD10RoundRect,0.250000X0.650000X-0.412500X0.650000X0.412500X-0.650000X0.412500X-0.650000X-0.412500X0*%
%ADD11RoundRect,0.250000X-0.400000X-0.625000X0.400000X-0.625000X0.400000X0.625000X-0.400000X0.625000X0*%
%ADD12RoundRect,0.250000X0.625000X-0.400000X0.625000X0.400000X-0.625000X0.400000X-0.625000X-0.400000X0*%
%ADD13RoundRect,0.250000X-0.412500X-0.650000X0.412500X-0.650000X0.412500X0.650000X-0.412500X0.650000X0*%
%ADD14RoundRect,0.250000X-0.625000X0.400000X-0.625000X-0.400000X0.625000X-0.400000X0.625000X0.400000X0*%
%ADD15RoundRect,0.150000X-0.512500X-0.150000X0.512500X-0.150000X0.512500X0.150000X-0.512500X0.150000X0*%
G04 APERTURE END LIST*
D10*
%TO.C,C3*%
X157025000Y-105850000D03*
X157025000Y-102725000D03*
%TD*%
D11*
%TO.C,R6*%
X196725000Y-89450000D03*
X199825000Y-89450000D03*
%TD*%
D12*
%TO.C,R12*%
X187200000Y-105500000D03*
X187200000Y-102400000D03*
%TD*%
D13*
%TO.C,C4*%
X126237500Y-95800000D03*
X129362500Y-95800000D03*
%TD*%
D11*
%TO.C,R14*%
X196825000Y-96245000D03*
X199925000Y-96245000D03*
%TD*%
D12*
%TO.C,R9*%
X172450000Y-105400000D03*
X172450000Y-102300000D03*
%TD*%
D10*
%TO.C,C5*%
X134850000Y-88175000D03*
X134850000Y-85050000D03*
%TD*%
D14*
%TO.C,R7*%
X167250000Y-102425000D03*
X167250000Y-105525000D03*
%TD*%
D11*
%TO.C,R17*%
X196475000Y-74150000D03*
X199575000Y-74150000D03*
%TD*%
D12*
%TO.C,R20*%
X119175000Y-86150000D03*
X119175000Y-83050000D03*
%TD*%
D11*
%TO.C,R18*%
X196225000Y-77400000D03*
X199325000Y-77400000D03*
%TD*%
D15*
%TO.C,U6*%
X146912500Y-78925000D03*
X146912500Y-79875000D03*
X146912500Y-80825000D03*
X149187500Y-80825000D03*
X149187500Y-79875000D03*
X149187500Y-78925000D03*
%TD*%
D12*
%TO.C,R10*%
X177300000Y-105400000D03*
X177300000Y-102300000D03*
%TD*%
D11*
%TO.C,R5*%
X196825000Y-85095000D03*
X199925000Y-85095000D03*
%TD*%
D12*
%TO.C,R13*%
X162375000Y-105675000D03*
X162375000Y-102575000D03*
%TD*%
D11*
%TO.C,R8*%
X196825000Y-92995000D03*
X199925000Y-92995000D03*
%TD*%
%TO.C,R16*%
X196725000Y-81520000D03*
X199825000Y-81520000D03*
%TD*%
%TO.C,R15*%
X196575000Y-71125000D03*
X199675000Y-71125000D03*
%TD*%
D12*
%TO.C,R11*%
X182225000Y-105350000D03*
X182225000Y-102250000D03*
%TD*%
%TO.C,R19*%
X119175000Y-93100000D03*
X119175000Y-90000000D03*
%TD*%
M02*
