%TF.GenerationSoftware,KiCad,Pcbnew,9.0.3*%
%TF.CreationDate,2025-12-16T11:33:00+01:00*%
%TF.ProjectId,PTP_Josip_Grgic_Project1,5054505f-4a6f-4736-9970-5f4772676963,rev?*%
%TF.SameCoordinates,Original*%
%TF.FileFunction,Copper,L1,Top*%
%TF.FilePolarity,Positive*%
%FSLAX46Y46*%
G04 Gerber Fmt 4.6, Leading zero omitted, Abs format (unit mm)*
G04 Created by KiCad (PCBNEW 9.0.3) date 2025-12-16 11:33:00*
%MOMM*%
%LPD*%
G01*
G04 APERTURE LIST*
G04 Aperture macros list*
%AMRoundRect*
0 Rectangle with rounded corners*
0 $1 Rounding radius*
0 $2 $3 $4 $5 $6 $7 $8 $9 X,Y pos of 4 corners*
0 Add a 4 corners polygon primitive as box body*
4,1,4,$2,$3,$4,$5,$6,$7,$8,$9,$2,$3,0*
0 Add four circle primitives for the rounded corners*
1,1,$1+$1,$2,$3*
1,1,$1+$1,$4,$5*
1,1,$1+$1,$6,$7*
1,1,$1+$1,$8,$9*
0 Add four rect primitives between the rounded corners*
20,1,$1+$1,$2,$3,$4,$5,0*
20,1,$1+$1,$4,$5,$6,$7,0*
20,1,$1+$1,$6,$7,$8,$9,0*
20,1,$1+$1,$8,$9,$2,$3,0*%
G04 Aperture macros list end*
%TA.AperFunction,ComponentPad*%
%ADD10RoundRect,0.250000X0.550000X-0.550000X0.550000X0.550000X-0.550000X0.550000X-0.550000X-0.550000X0*%
%TD*%
%TA.AperFunction,ComponentPad*%
%ADD11C,1.600000*%
%TD*%
%TA.AperFunction,ComponentPad*%
%ADD12RoundRect,0.250000X0.950000X0.550000X-0.950000X0.550000X-0.950000X-0.550000X0.950000X-0.550000X0*%
%TD*%
%TA.AperFunction,ComponentPad*%
%ADD13O,2.400000X1.600000*%
%TD*%
%TA.AperFunction,SMDPad,CuDef*%
%ADD14RoundRect,0.250000X0.650000X-0.412500X0.650000X0.412500X-0.650000X0.412500X-0.650000X-0.412500X0*%
%TD*%
%TA.AperFunction,SMDPad,CuDef*%
%ADD15RoundRect,0.250000X-0.400000X-0.625000X0.400000X-0.625000X0.400000X0.625000X-0.400000X0.625000X0*%
%TD*%
%TA.AperFunction,SMDPad,CuDef*%
%ADD16RoundRect,0.250000X0.625000X-0.400000X0.625000X0.400000X-0.625000X0.400000X-0.625000X-0.400000X0*%
%TD*%
%TA.AperFunction,ComponentPad*%
%ADD17C,2.400000*%
%TD*%
%TA.AperFunction,SMDPad,CuDef*%
%ADD18RoundRect,0.250000X-0.412500X-0.650000X0.412500X-0.650000X0.412500X0.650000X-0.412500X0.650000X0*%
%TD*%
%TA.AperFunction,ComponentPad*%
%ADD19RoundRect,0.250000X-0.550000X-0.550000X0.550000X-0.550000X0.550000X0.550000X-0.550000X0.550000X0*%
%TD*%
%TA.AperFunction,ComponentPad*%
%ADD20C,2.000000*%
%TD*%
%TA.AperFunction,ComponentPad*%
%ADD21R,1.800000X1.800000*%
%TD*%
%TA.AperFunction,ComponentPad*%
%ADD22C,1.800000*%
%TD*%
%TA.AperFunction,SMDPad,CuDef*%
%ADD23RoundRect,0.250000X-0.625000X0.400000X-0.625000X-0.400000X0.625000X-0.400000X0.625000X0.400000X0*%
%TD*%
%TA.AperFunction,ComponentPad*%
%ADD24RoundRect,0.250000X-0.950000X-0.550000X0.950000X-0.550000X0.950000X0.550000X-0.950000X0.550000X0*%
%TD*%
%TA.AperFunction,SMDPad,CuDef*%
%ADD25RoundRect,0.150000X-0.512500X-0.150000X0.512500X-0.150000X0.512500X0.150000X-0.512500X0.150000X0*%
%TD*%
%TA.AperFunction,ComponentPad*%
%ADD26R,1.600000X1.600000*%
%TD*%
%TA.AperFunction,ComponentPad*%
%ADD27RoundRect,0.250001X1.149999X-1.149999X1.149999X1.149999X-1.149999X1.149999X-1.149999X-1.149999X0*%
%TD*%
%TA.AperFunction,ComponentPad*%
%ADD28C,2.800000*%
%TD*%
%TA.AperFunction,ComponentPad*%
%ADD29RoundRect,0.249999X-0.850001X-0.850001X0.850001X-0.850001X0.850001X0.850001X-0.850001X0.850001X0*%
%TD*%
%TA.AperFunction,ComponentPad*%
%ADD30C,2.200000*%
%TD*%
%TA.AperFunction,ComponentPad*%
%ADD31O,3.500000X2.200000*%
%TD*%
%TA.AperFunction,ComponentPad*%
%ADD32R,2.500000X1.500000*%
%TD*%
%TA.AperFunction,ComponentPad*%
%ADD33O,2.500000X1.500000*%
%TD*%
%TA.AperFunction,ViaPad*%
%ADD34C,0.600000*%
%TD*%
%TA.AperFunction,Conductor*%
%ADD35C,0.500000*%
%TD*%
%TA.AperFunction,Conductor*%
%ADD36C,0.200000*%
%TD*%
G04 APERTURE END LIST*
D10*
%TO.P,C1,1*%
%TO.N,VD*%
X132000000Y-57425000D03*
D11*
%TO.P,C1,2*%
%TO.N,GND*%
X132000000Y-55425000D03*
%TD*%
D12*
%TO.P,U1,1,FB*%
%TO.N,+5V*%
X146325000Y-65775000D03*
D13*
%TO.P,U1,2,SGND*%
%TO.N,GND*%
X146325000Y-63235000D03*
%TO.P,U1,3,~{ON}/OFF*%
X146325000Y-60695000D03*
%TO.P,U1,4,PGND*%
X146325000Y-58155000D03*
%TO.P,U1,5,VIN*%
%TO.N,VD*%
X138705000Y-58155000D03*
%TO.P,U1,6,NC*%
%TO.N,unconnected-(U1-NC-Pad6)*%
X138705000Y-60695000D03*
%TO.P,U1,7,OUT*%
%TO.N,Net-(D4-K)*%
X138705000Y-63235000D03*
%TO.P,U1,8,NC*%
%TO.N,unconnected-(U1-NC-Pad8)*%
X138705000Y-65775000D03*
%TD*%
D14*
%TO.P,C3,1*%
%TO.N,GND*%
X157025000Y-105850000D03*
%TO.P,C3,2*%
%TO.N,Net-(SW2-A)*%
X157025000Y-102725000D03*
%TD*%
D15*
%TO.P,R6,1*%
%TO.N,Net-(U4-b)*%
X196725000Y-89450000D03*
%TO.P,R6,2*%
%TO.N,Net-(U5-B)*%
X199825000Y-89450000D03*
%TD*%
D16*
%TO.P,R12,1*%
%TO.N,+5V*%
X187200000Y-105500000D03*
%TO.P,R12,2*%
%TO.N,Net-(U3B-J)*%
X187200000Y-102400000D03*
%TD*%
D17*
%TO.P,L1,1,1*%
%TO.N,Net-(D4-K)*%
X153250000Y-66475000D03*
%TO.P,L1,2,2*%
%TO.N,+5V*%
X153250000Y-63475000D03*
%TD*%
D18*
%TO.P,C4,1*%
%TO.N,+5V*%
X126237500Y-95800000D03*
%TO.P,C4,2*%
%TO.N,GND*%
X129362500Y-95800000D03*
%TD*%
D15*
%TO.P,R14,1*%
%TO.N,Net-(U4-d)*%
X196825000Y-96245000D03*
%TO.P,R14,2*%
%TO.N,Net-(U5-D)*%
X199925000Y-96245000D03*
%TD*%
D16*
%TO.P,R9,1*%
%TO.N,+5V*%
X172450000Y-105400000D03*
%TO.P,R9,2*%
%TO.N,Net-(U2A-J)*%
X172450000Y-102300000D03*
%TD*%
D19*
%TO.P,U7,1,GND*%
%TO.N,GND*%
X124295000Y-84215000D03*
D11*
%TO.P,U7,2,TR*%
%TO.N,Net-(U7-THR)*%
X124295000Y-86755000D03*
%TO.P,U7,3,Q*%
%TO.N,555*%
X124295000Y-89295000D03*
%TO.P,U7,4,R*%
%TO.N,+5V*%
X124295000Y-91835000D03*
%TO.P,U7,5,CV*%
%TO.N,unconnected-(U7-CV-Pad5)*%
X131915000Y-91835000D03*
%TO.P,U7,6,THR*%
%TO.N,Net-(U7-THR)*%
X131915000Y-89295000D03*
%TO.P,U7,7,DIS*%
%TO.N,Net-(U7-DIS)*%
X131915000Y-86755000D03*
%TO.P,U7,8,VCC*%
%TO.N,+5V*%
X131915000Y-84215000D03*
%TD*%
D20*
%TO.P,SW1,1,1*%
%TO.N,GND*%
X163125000Y-111175000D03*
X169625000Y-111175000D03*
%TO.P,SW1,2,2*%
%TO.N,Net-(R13-Pad1)*%
X163125000Y-115675000D03*
X169625000Y-115675000D03*
%TD*%
D21*
%TO.P,D3,1,K*%
%TO.N,Net-(D3-K)*%
X183225000Y-66000000D03*
D22*
%TO.P,D3,2,A*%
%TO.N,Q2*%
X185765000Y-66000000D03*
%TD*%
D14*
%TO.P,C5,1*%
%TO.N,Net-(U7-THR)*%
X134850000Y-88175000D03*
%TO.P,C5,2*%
%TO.N,GND*%
X134850000Y-85050000D03*
%TD*%
D23*
%TO.P,R7,1*%
%TO.N,Clock*%
X167250000Y-102425000D03*
%TO.P,R7,2*%
%TO.N,+5V*%
X167250000Y-105525000D03*
%TD*%
D21*
%TO.P,D1,1,K*%
%TO.N,Net-(D1-K)*%
X168160000Y-66150000D03*
D22*
%TO.P,D1,2,A*%
%TO.N,Q0*%
X170700000Y-66150000D03*
%TD*%
D11*
%TO.P,R3,1*%
%TO.N,Net-(D3-K)*%
X183150000Y-60980000D03*
%TO.P,R3,2*%
%TO.N,GND*%
X183150000Y-50820000D03*
%TD*%
D21*
%TO.P,D2,1,K*%
%TO.N,Net-(D2-K)*%
X175975000Y-66000000D03*
D22*
%TO.P,D2,2,A*%
%TO.N,Q1*%
X178515000Y-66000000D03*
%TD*%
D21*
%TO.P,D5,1,K*%
%TO.N,Net-(D5-K)*%
X190725000Y-66000000D03*
D22*
%TO.P,D5,2,A*%
%TO.N,Q3*%
X193265000Y-66000000D03*
%TD*%
D15*
%TO.P,R17,1*%
%TO.N,Net-(U4-f)*%
X196475000Y-74150000D03*
%TO.P,R17,2*%
%TO.N,Net-(U5-F)*%
X199575000Y-74150000D03*
%TD*%
D16*
%TO.P,R20,1*%
%TO.N,Net-(U7-DIS)*%
X119175000Y-86150000D03*
%TO.P,R20,2*%
%TO.N,Net-(U7-THR)*%
X119175000Y-83050000D03*
%TD*%
D15*
%TO.P,R18,1*%
%TO.N,Net-(U4-g)*%
X196225000Y-77400000D03*
%TO.P,R18,2*%
%TO.N,Net-(U5-G)*%
X199325000Y-77400000D03*
%TD*%
D24*
%TO.P,U3,1,Q*%
%TO.N,Q2*%
X167830000Y-73895000D03*
D13*
%TO.P,U3,2,~{Q}*%
%TO.N,unconnected-(U3A-~{Q}-Pad2)*%
X167830000Y-76435000D03*
%TO.P,U3,3,C*%
%TO.N,Q1*%
X167830000Y-78975000D03*
%TO.P,U3,4,R*%
%TO.N,Reset*%
X167830000Y-81515000D03*
%TO.P,U3,5,K*%
%TO.N,Net-(U3A-J)*%
X167830000Y-84055000D03*
%TO.P,U3,6,J*%
X167830000Y-86595000D03*
%TO.P,U3,7,S*%
%TO.N,GND*%
X167830000Y-89135000D03*
%TO.P,U3,8,VSS*%
X167830000Y-91675000D03*
%TO.P,U3,9,S*%
X175450000Y-91675000D03*
%TO.P,U3,10,J*%
%TO.N,Net-(U3B-J)*%
X175450000Y-89135000D03*
%TO.P,U3,11,K*%
X175450000Y-86595000D03*
%TO.P,U3,12,R*%
%TO.N,Reset*%
X175450000Y-84055000D03*
%TO.P,U3,13,C*%
%TO.N,Q2*%
X175450000Y-81515000D03*
%TO.P,U3,14,~{Q}*%
%TO.N,unconnected-(U3B-~{Q}-Pad14)*%
X175450000Y-78975000D03*
%TO.P,U3,15,Q*%
%TO.N,Q3*%
X175450000Y-76435000D03*
%TO.P,U3,16,VDD*%
%TO.N,+5V*%
X175450000Y-73895000D03*
%TD*%
D25*
%TO.P,U6,1*%
%TO.N,Q3*%
X146912500Y-78925000D03*
%TO.P,U6,2,GND*%
%TO.N,GND*%
X146912500Y-79875000D03*
%TO.P,U6,3*%
%TO.N,Clock*%
X146912500Y-80825000D03*
%TO.P,U6,4*%
%TO.N,Reset*%
X149187500Y-80825000D03*
%TO.P,U6,5,VCC*%
%TO.N,+5V*%
X149187500Y-79875000D03*
%TO.P,U6,6*%
%TO.N,Q1*%
X149187500Y-78925000D03*
%TD*%
D16*
%TO.P,R10,1*%
%TO.N,+5V*%
X177300000Y-105400000D03*
%TO.P,R10,2*%
%TO.N,Net-(U2B-J)*%
X177300000Y-102300000D03*
%TD*%
D15*
%TO.P,R5,1*%
%TO.N,Net-(U4-a)*%
X196825000Y-85095000D03*
%TO.P,R5,2*%
%TO.N,Net-(U5-A)*%
X199925000Y-85095000D03*
%TD*%
D16*
%TO.P,R13,1*%
%TO.N,Net-(R13-Pad1)*%
X162375000Y-105675000D03*
%TO.P,R13,2*%
%TO.N,Net-(SW2-A)*%
X162375000Y-102575000D03*
%TD*%
D24*
%TO.P,U4,1,B*%
%TO.N,Q1*%
X184190000Y-74135000D03*
D13*
%TO.P,U4,2,C*%
%TO.N,Q2*%
X184190000Y-76675000D03*
%TO.P,U4,3,LT*%
%TO.N,Net-(U4-BI)*%
X184190000Y-79215000D03*
%TO.P,U4,4,BI*%
X184190000Y-81755000D03*
%TO.P,U4,5,RBI*%
X184190000Y-84295000D03*
%TO.P,U4,6,D*%
%TO.N,Q3*%
X184190000Y-86835000D03*
%TO.P,U4,7,A*%
%TO.N,Q0*%
X184190000Y-89375000D03*
%TO.P,U4,8,GND*%
%TO.N,GND*%
X184190000Y-91915000D03*
%TO.P,U4,9,e*%
%TO.N,Net-(U4-e)*%
X191810000Y-91915000D03*
%TO.P,U4,10,d*%
%TO.N,Net-(U4-d)*%
X191810000Y-89375000D03*
%TO.P,U4,11,c*%
%TO.N,Net-(U4-c)*%
X191810000Y-86835000D03*
%TO.P,U4,12,b*%
%TO.N,Net-(U4-b)*%
X191810000Y-84295000D03*
%TO.P,U4,13,a*%
%TO.N,Net-(U4-a)*%
X191810000Y-81755000D03*
%TO.P,U4,14,g*%
%TO.N,Net-(U4-g)*%
X191810000Y-79215000D03*
%TO.P,U4,15,f*%
%TO.N,Net-(U4-f)*%
X191810000Y-76675000D03*
%TO.P,U4,16,VCC*%
%TO.N,+5V*%
X191810000Y-74135000D03*
%TD*%
D11*
%TO.P,R4,1*%
%TO.N,Net-(D5-K)*%
X190900000Y-60630000D03*
%TO.P,R4,2*%
%TO.N,GND*%
X190900000Y-50470000D03*
%TD*%
D15*
%TO.P,R8,1*%
%TO.N,Net-(U4-c)*%
X196825000Y-92995000D03*
%TO.P,R8,2*%
%TO.N,Net-(U5-C)*%
X199925000Y-92995000D03*
%TD*%
%TO.P,R16,1*%
%TO.N,Net-(U4-e)*%
X196725000Y-81520000D03*
%TO.P,R16,2*%
%TO.N,Net-(U5-E)*%
X199825000Y-81520000D03*
%TD*%
%TO.P,R15,1*%
%TO.N,+5V*%
X196575000Y-71125000D03*
%TO.P,R15,2*%
%TO.N,Net-(U4-BI)*%
X199675000Y-71125000D03*
%TD*%
D11*
%TO.P,R1,1*%
%TO.N,Net-(D1-K)*%
X169025000Y-60855000D03*
%TO.P,R1,2*%
%TO.N,GND*%
X169025000Y-50695000D03*
%TD*%
D26*
%TO.P,U5,1,CA*%
%TO.N,+5V*%
X204682500Y-74632500D03*
D11*
%TO.P,U5,2,F*%
%TO.N,Net-(U5-F)*%
X204682500Y-77172500D03*
%TO.P,U5,3,G*%
%TO.N,Net-(U5-G)*%
X204682500Y-79712500D03*
%TO.P,U5,4,E*%
%TO.N,Net-(U5-E)*%
X204682500Y-82252500D03*
%TO.P,U5,5,D*%
%TO.N,Net-(U5-D)*%
X204682500Y-84792500D03*
%TO.P,U5,6,CA*%
%TO.N,+5V*%
X209762500Y-84792500D03*
%TO.P,U5,7,DP*%
%TO.N,unconnected-(U5-DP-Pad7)*%
X209762500Y-82252500D03*
%TO.P,U5,8,C*%
%TO.N,Net-(U5-C)*%
X209762500Y-79712500D03*
%TO.P,U5,9,B*%
%TO.N,Net-(U5-B)*%
X209762500Y-77172500D03*
%TO.P,U5,10,A*%
%TO.N,Net-(U5-A)*%
X209762500Y-74632500D03*
%TD*%
%TO.P,R2,1*%
%TO.N,Net-(D2-K)*%
X176325000Y-60980000D03*
%TO.P,R2,2*%
%TO.N,GND*%
X176325000Y-50820000D03*
%TD*%
D27*
%TO.P,J1,1,Pin_1*%
%TO.N,GND*%
X124542500Y-72200000D03*
D28*
%TO.P,J1,2,Pin_2*%
%TO.N,VD*%
X124542500Y-67200000D03*
%TD*%
D24*
%TO.P,U2,1,Q*%
%TO.N,Q0*%
X153915000Y-74010000D03*
D13*
%TO.P,U2,2,~{Q}*%
%TO.N,unconnected-(U2A-~{Q}-Pad2)*%
X153915000Y-76550000D03*
%TO.P,U2,3,C*%
%TO.N,Clock*%
X153915000Y-79090000D03*
%TO.P,U2,4,R*%
%TO.N,Reset*%
X153915000Y-81630000D03*
%TO.P,U2,5,K*%
%TO.N,Net-(U2A-J)*%
X153915000Y-84170000D03*
%TO.P,U2,6,J*%
X153915000Y-86710000D03*
%TO.P,U2,7,S*%
%TO.N,GND*%
X153915000Y-89250000D03*
%TO.P,U2,8,VSS*%
X153915000Y-91790000D03*
%TO.P,U2,9,S*%
X161535000Y-91790000D03*
%TO.P,U2,10,J*%
%TO.N,Net-(U2B-J)*%
X161535000Y-89250000D03*
%TO.P,U2,11,K*%
X161535000Y-86710000D03*
%TO.P,U2,12,R*%
%TO.N,Reset*%
X161535000Y-84170000D03*
%TO.P,U2,13,C*%
%TO.N,Q0*%
X161535000Y-81630000D03*
%TO.P,U2,14,~{Q}*%
%TO.N,unconnected-(U2B-~{Q}-Pad14)*%
X161535000Y-79090000D03*
%TO.P,U2,15,Q*%
%TO.N,Q1*%
X161535000Y-76550000D03*
%TO.P,U2,16,VDD*%
%TO.N,+5V*%
X161535000Y-74010000D03*
%TD*%
D16*
%TO.P,R11,1*%
%TO.N,+5V*%
X182225000Y-105350000D03*
%TO.P,R11,2*%
%TO.N,Net-(U3A-J)*%
X182225000Y-102250000D03*
%TD*%
D10*
%TO.P,C2,1*%
%TO.N,+5V*%
X153550000Y-58225000D03*
D11*
%TO.P,C2,2*%
%TO.N,GND*%
X153550000Y-56225000D03*
%TD*%
D29*
%TO.P,D4,1,K*%
%TO.N,Net-(D4-K)*%
X137600000Y-52650000D03*
D30*
%TO.P,D4,2,A*%
%TO.N,GND*%
X150300000Y-52650000D03*
%TD*%
D16*
%TO.P,R19,1*%
%TO.N,+5V*%
X119175000Y-93100000D03*
%TO.P,R19,2*%
%TO.N,Net-(U7-DIS)*%
X119175000Y-90000000D03*
%TD*%
D31*
%TO.P,SW2,*%
%TO.N,*%
X140850000Y-75225000D03*
X140850000Y-83425000D03*
D32*
%TO.P,SW2,1,B*%
%TO.N,Clock*%
X140850000Y-77325000D03*
D33*
%TO.P,SW2,2,C*%
%TO.N,555*%
X140850000Y-79325000D03*
%TO.P,SW2,3,A*%
%TO.N,Net-(SW2-A)*%
X140850000Y-81325000D03*
%TD*%
D34*
%TO.N,+5V*%
X152000000Y-76049000D03*
X150815341Y-77051000D03*
%TO.N,GND*%
X144000000Y-72200000D03*
X144999000Y-76750000D03*
%TO.N,+5V*%
X147000000Y-84000000D03*
X145000000Y-86000000D03*
%TO.N,Q1*%
X149187500Y-78925000D03*
X162181269Y-77051000D03*
X160688240Y-76811759D03*
X160688240Y-76811759D03*
X160688240Y-76811759D03*
%TO.N,Net-(U3B-J)*%
X176214978Y-87134000D03*
%TO.N,+5V*%
X173000000Y-74000000D03*
X190000000Y-75000000D03*
%TO.N,GND*%
X152000000Y-85500000D03*
X167000000Y-92000000D03*
%TO.N,+5V*%
X206299527Y-75689893D03*
%TO.N,GND*%
X144000000Y-85000000D03*
%TO.N,Net-(U7-THR)*%
X126500000Y-87500000D03*
%TO.N,GND*%
X153000000Y-104000000D03*
%TO.N,Q3*%
X146500000Y-77000000D03*
%TO.N,Reset*%
X149900000Y-81500000D03*
X151500000Y-81500000D03*
%TO.N,Q2*%
X179000000Y-80500000D03*
X177897169Y-81602831D03*
%TO.N,+5V*%
X209500000Y-88900000D03*
X209500000Y-90100000D03*
%TO.N,Net-(U5-C)*%
X205500000Y-89500000D03*
X204000000Y-89500000D03*
%TO.N,Net-(U4-d)*%
X193893327Y-91315000D03*
X194000000Y-92600000D03*
%TO.N,Net-(U4-c)*%
X193900000Y-90000000D03*
X195100000Y-90500000D03*
%TO.N,Net-(U4-b)*%
X193900000Y-85000000D03*
X195100000Y-85500000D03*
%TO.N,Net-(U4-a)*%
X194375735Y-83020735D03*
X195100000Y-84000000D03*
%TO.N,GND*%
X148775000Y-64850000D03*
X148775000Y-67625000D03*
%TO.N,+5V*%
X121300000Y-93200000D03*
X123225000Y-93050000D03*
%TO.N,Net-(U7-THR)*%
X121675000Y-86525000D03*
X123225000Y-86600000D03*
%TO.N,Q1*%
X170737169Y-77862831D03*
X172200000Y-76550000D03*
%TO.N,Q2*%
X180775000Y-69475000D03*
X177475000Y-69400000D03*
%TO.N,Net-(D4-K)*%
X144975000Y-69275000D03*
X148275000Y-69325000D03*
X135450000Y-59250000D03*
X135450000Y-57200000D03*
%TO.N,Q3*%
X177925000Y-74275000D03*
X179750000Y-71525000D03*
X177950000Y-76175000D03*
X182175000Y-70975000D03*
%TO.N,Net-(R13-Pad1)*%
X159375000Y-108950000D03*
X157425000Y-110500000D03*
%TO.N,Net-(U7-DIS)*%
X134000000Y-90050000D03*
X133426752Y-88537586D03*
%TO.N,555*%
X120875000Y-84350000D03*
X123225000Y-89325000D03*
X120925000Y-82050000D03*
X121725000Y-89225000D03*
%TD*%
D35*
%TO.N,Net-(U7-DIS)*%
X117500000Y-91675000D02*
X119175000Y-90000000D01*
X117500000Y-98575000D02*
X117500000Y-91675000D01*
D36*
%TO.N,Net-(U5-C)*%
X211712500Y-79712500D02*
X209762500Y-79712500D01*
X211500000Y-89500000D02*
X211500000Y-79925000D01*
X205500000Y-89500000D02*
X211500000Y-89500000D01*
X211500000Y-79925000D02*
X211712500Y-79712500D01*
D35*
%TO.N,Net-(U7-DIS)*%
X134150000Y-90200000D02*
X134000000Y-90050000D01*
X134075000Y-99775000D02*
X134150000Y-99850000D01*
X118700000Y-99775000D02*
X134075000Y-99775000D01*
X117500000Y-98575000D02*
X118700000Y-99775000D01*
X134150000Y-99850000D02*
X134150000Y-90200000D01*
%TO.N,+5V*%
X152000000Y-75928708D02*
X152667708Y-75261000D01*
X152000000Y-76049000D02*
X152000000Y-75928708D01*
X149544900Y-77051000D02*
X150815341Y-77051000D01*
X148074000Y-78521900D02*
X149544900Y-77051000D01*
X148074000Y-79328100D02*
X148074000Y-78521900D01*
X148620900Y-79875000D02*
X148074000Y-79328100D01*
X149187500Y-79875000D02*
X148620900Y-79875000D01*
%TO.N,GND*%
X144200000Y-72200000D02*
X144000000Y-72200000D01*
X144999000Y-78623999D02*
X144999000Y-76750000D01*
X146250001Y-79875000D02*
X144999000Y-78623999D01*
X146912500Y-79875000D02*
X146250001Y-79875000D01*
%TO.N,+5V*%
X148525001Y-79875000D02*
X149187500Y-79875000D01*
X148074000Y-82926000D02*
X148074000Y-80326001D01*
X147000000Y-84000000D02*
X148074000Y-82926000D01*
X144836500Y-86163500D02*
X145000000Y-86000000D01*
X133863500Y-86163500D02*
X144836500Y-86163500D01*
X148074000Y-80326001D02*
X148525001Y-79875000D01*
X131915000Y-84215000D02*
X133863500Y-86163500D01*
%TO.N,Q1*%
X161680269Y-76550000D02*
X162181269Y-77051000D01*
X161535000Y-76550000D02*
X161680269Y-76550000D01*
X160949999Y-76550000D02*
X160688240Y-76811759D01*
X161535000Y-76550000D02*
X160949999Y-76550000D01*
%TO.N,Q0*%
X164592910Y-78572090D02*
X164592910Y-77907090D01*
X161535000Y-81630000D02*
X164592910Y-78572090D01*
X164592910Y-77907090D02*
X166911819Y-80226000D01*
%TO.N,GND*%
X173280819Y-89135000D02*
X173799000Y-88616819D01*
X167830000Y-89135000D02*
X173280819Y-89135000D01*
X167830000Y-91675000D02*
X167830000Y-89135000D01*
%TO.N,Net-(U3B-J)*%
X175675978Y-86595000D02*
X176214978Y-87134000D01*
X175450000Y-86595000D02*
X175675978Y-86595000D01*
D36*
%TO.N,+5V*%
X175345000Y-74000000D02*
X173000000Y-74000000D01*
X175450000Y-73895000D02*
X175345000Y-74000000D01*
%TO.N,Net-(U4-BI)*%
X184190000Y-79215000D02*
X184190000Y-84295000D01*
%TO.N,+5V*%
X190865000Y-74135000D02*
X190000000Y-75000000D01*
X191810000Y-74135000D02*
X190865000Y-74135000D01*
D35*
%TO.N,Net-(U3A-J)*%
X167830000Y-86595000D02*
X167830000Y-84055000D01*
%TO.N,Net-(U2B-J)*%
X161535000Y-86710000D02*
X161535000Y-89250000D01*
%TO.N,Net-(U2A-J)*%
X153915000Y-86710000D02*
X153915000Y-84170000D01*
%TO.N,GND*%
X152000000Y-87335000D02*
X152000000Y-85500000D01*
X153915000Y-89250000D02*
X152000000Y-87335000D01*
X153915000Y-91790000D02*
X153915000Y-89250000D01*
X161535000Y-91790000D02*
X153915000Y-91790000D01*
X167325000Y-91675000D02*
X167000000Y-92000000D01*
X167830000Y-91675000D02*
X167325000Y-91675000D01*
X173799000Y-90024000D02*
X175450000Y-91675000D01*
X174531819Y-87884000D02*
X173799000Y-88616819D01*
X180159000Y-87884000D02*
X174531819Y-87884000D01*
X173799000Y-88616819D02*
X173799000Y-90024000D01*
X184190000Y-91915000D02*
X180159000Y-87884000D01*
D36*
%TO.N,+5V*%
X206189893Y-75799527D02*
X206299527Y-75689893D01*
X205849527Y-75799527D02*
X206189893Y-75799527D01*
X204682500Y-74632500D02*
X205849527Y-75799527D01*
D35*
X152264000Y-70369636D02*
X152264000Y-74857292D01*
X152264000Y-74857292D02*
X152667708Y-75261000D01*
X153559636Y-69074000D02*
X152264000Y-70369636D01*
X158849000Y-69074000D02*
X153559636Y-69074000D01*
X159285000Y-74010000D02*
X161535000Y-74010000D01*
X153250000Y-63475000D02*
X158849000Y-69074000D01*
X152667708Y-75261000D02*
X158034000Y-75261000D01*
X158034000Y-75261000D02*
X159285000Y-74010000D01*
%TO.N,GND*%
X143950000Y-85050000D02*
X144000000Y-85000000D01*
X134850000Y-85050000D02*
X143950000Y-85050000D01*
%TO.N,Net-(U7-THR)*%
X125755000Y-86755000D02*
X126500000Y-87500000D01*
X124295000Y-86755000D02*
X125755000Y-86755000D01*
%TO.N,+5V*%
X124295000Y-91835000D02*
X131915000Y-84215000D01*
%TO.N,GND*%
X163125000Y-111175000D02*
X169625000Y-111175000D01*
%TO.N,Net-(R13-Pad1)*%
X163125000Y-115675000D02*
X169625000Y-115675000D01*
%TO.N,GND*%
X154850000Y-105850000D02*
X153000000Y-104000000D01*
X157025000Y-105850000D02*
X154850000Y-105850000D01*
%TO.N,Clock*%
X142142445Y-76776000D02*
X142918445Y-76000000D01*
X142918445Y-76000000D02*
X150825000Y-76000000D01*
X141399000Y-76776000D02*
X142142445Y-76776000D01*
X140850000Y-77325000D02*
X141399000Y-76776000D01*
X150825000Y-76000000D02*
X153915000Y-79090000D01*
%TO.N,Reset*%
X153785000Y-81500000D02*
X153915000Y-81630000D01*
X151500000Y-81500000D02*
X153785000Y-81500000D01*
X149225000Y-80825000D02*
X149900000Y-81500000D01*
X149187500Y-80825000D02*
X149225000Y-80825000D01*
X158995000Y-81630000D02*
X161535000Y-84170000D01*
X153915000Y-81630000D02*
X158995000Y-81630000D01*
X164830000Y-84170000D02*
X161535000Y-84170000D01*
X167485000Y-81515000D02*
X164830000Y-84170000D01*
X167830000Y-81515000D02*
X167485000Y-81515000D01*
X170370000Y-84055000D02*
X167830000Y-81515000D01*
X175450000Y-84055000D02*
X170370000Y-84055000D01*
%TO.N,Q2*%
X182825000Y-76675000D02*
X184190000Y-76675000D01*
X179000000Y-80500000D02*
X182825000Y-76675000D01*
X177809338Y-81515000D02*
X177897169Y-81602831D01*
X175450000Y-81515000D02*
X177809338Y-81515000D01*
%TO.N,+5V*%
X209500000Y-85055000D02*
X209762500Y-84792500D01*
X209500000Y-88900000D02*
X209500000Y-85055000D01*
X194100000Y-105500000D02*
X209500000Y-90100000D01*
X187200000Y-105500000D02*
X194100000Y-105500000D01*
D36*
X197751000Y-72301000D02*
X196575000Y-71125000D01*
X202351000Y-72301000D02*
X197751000Y-72301000D01*
X204682500Y-74632500D02*
X202351000Y-72301000D01*
D35*
%TO.N,Q2*%
X184590000Y-76675000D02*
X184190000Y-76675000D01*
X191418182Y-59379000D02*
X194616000Y-62576818D01*
X194616000Y-62576818D02*
X194616000Y-66649000D01*
X190381818Y-59379000D02*
X191418182Y-59379000D01*
X194616000Y-66649000D02*
X184590000Y-76675000D01*
X185765000Y-63995818D02*
X190381818Y-59379000D01*
X185765000Y-66000000D02*
X185765000Y-63995818D01*
%TO.N,Q3*%
X177101000Y-79746000D02*
X184190000Y-86835000D01*
X177101000Y-78086000D02*
X177101000Y-79746000D01*
X175450000Y-76435000D02*
X177101000Y-78086000D01*
%TO.N,Q0*%
X177581000Y-82766000D02*
X184190000Y-89375000D01*
X174531819Y-82766000D02*
X177581000Y-82766000D01*
X171991819Y-80226000D02*
X174531819Y-82766000D01*
X166911819Y-80226000D02*
X171991819Y-80226000D01*
X164486819Y-77801000D02*
X164592910Y-77907090D01*
X160616819Y-77801000D02*
X164486819Y-77801000D01*
X159884000Y-77068181D02*
X160616819Y-77801000D01*
X159884000Y-76031819D02*
X159884000Y-77068181D01*
X160616819Y-75299000D02*
X159884000Y-76031819D01*
X162453181Y-75299000D02*
X160616819Y-75299000D01*
X165695364Y-72056817D02*
X162453181Y-75299000D01*
X165695364Y-71154636D02*
X165695364Y-72056817D01*
X170700000Y-66150000D02*
X165695364Y-71154636D01*
D36*
%TO.N,Net-(U5-B)*%
X210863500Y-76071500D02*
X209762500Y-77172500D01*
X210863500Y-74176450D02*
X210863500Y-76071500D01*
X210218550Y-73531500D02*
X210863500Y-74176450D01*
X209306450Y-73531500D02*
X210218550Y-73531500D01*
X206348500Y-76489450D02*
X209306450Y-73531500D01*
X206348500Y-81151500D02*
X206348500Y-76489450D01*
X204226450Y-81151500D02*
X206348500Y-81151500D01*
X203418950Y-80344000D02*
X204226450Y-81151500D01*
X199189840Y-80344000D02*
X203418950Y-80344000D01*
X198874000Y-80659840D02*
X199189840Y-80344000D01*
X198874000Y-88499000D02*
X198874000Y-80659840D01*
X199825000Y-89450000D02*
X198874000Y-88499000D01*
%TO.N,Net-(U5-A)*%
X208661500Y-75733500D02*
X209762500Y-74632500D01*
X208661500Y-79838500D02*
X208661500Y-75733500D01*
X205146500Y-83353500D02*
X208661500Y-79838500D01*
X201666500Y-83353500D02*
X205146500Y-83353500D01*
X199925000Y-85095000D02*
X201666500Y-83353500D01*
%TO.N,Net-(U5-E)*%
X199825000Y-81520000D02*
X203950000Y-81520000D01*
X203950000Y-81520000D02*
X204682500Y-82252500D01*
%TO.N,Net-(U5-G)*%
X202370000Y-77400000D02*
X204682500Y-79712500D01*
X199325000Y-77400000D02*
X202370000Y-77400000D01*
%TO.N,Net-(U5-F)*%
X201660000Y-74150000D02*
X204682500Y-77172500D01*
X199575000Y-74150000D02*
X201660000Y-74150000D01*
%TO.N,Net-(U4-BI)*%
X197550000Y-69000000D02*
X194405000Y-69000000D01*
X194405000Y-69000000D02*
X184190000Y-79215000D01*
X199675000Y-71125000D02*
X197550000Y-69000000D01*
%TO.N,Net-(U5-C)*%
X200505000Y-92995000D02*
X204000000Y-89500000D01*
X199925000Y-92995000D02*
X200505000Y-92995000D01*
%TO.N,Net-(U5-D)*%
X204682500Y-91487500D02*
X204682500Y-84792500D01*
X199925000Y-96245000D02*
X204682500Y-91487500D01*
%TO.N,Net-(U4-d)*%
X191953327Y-89375000D02*
X191810000Y-89375000D01*
X193893327Y-91315000D02*
X191953327Y-89375000D01*
X196825000Y-96245000D02*
X194000000Y-93420000D01*
X194000000Y-93420000D02*
X194000000Y-92600000D01*
%TO.N,Net-(U4-c)*%
X193900000Y-88925000D02*
X191810000Y-86835000D01*
X193900000Y-90000000D02*
X193900000Y-88925000D01*
X196825000Y-92225000D02*
X195100000Y-90500000D01*
X196825000Y-92995000D02*
X196825000Y-92225000D01*
%TO.N,Net-(U4-b)*%
X192515000Y-85000000D02*
X191810000Y-84295000D01*
X196725000Y-87125000D02*
X195100000Y-85500000D01*
X193900000Y-85000000D02*
X192515000Y-85000000D01*
X196725000Y-89450000D02*
X196725000Y-87125000D01*
%TO.N,Net-(U4-a)*%
X193110000Y-81755000D02*
X191810000Y-81755000D01*
X194375735Y-83020735D02*
X193110000Y-81755000D01*
X195730000Y-84000000D02*
X195100000Y-84000000D01*
X196825000Y-85095000D02*
X195730000Y-84000000D01*
%TO.N,Net-(U4-e)*%
X194500000Y-83745000D02*
X194500000Y-92000000D01*
X194000000Y-92000000D02*
X193915000Y-91915000D01*
X196725000Y-81520000D02*
X194500000Y-83745000D01*
X194500000Y-92000000D02*
X194000000Y-92000000D01*
X193915000Y-91915000D02*
X191810000Y-91915000D01*
%TO.N,Net-(U4-g)*%
X193625000Y-77400000D02*
X191810000Y-79215000D01*
X196225000Y-77400000D02*
X193625000Y-77400000D01*
%TO.N,Net-(U4-f)*%
X196475000Y-74150000D02*
X194335000Y-74150000D01*
X194335000Y-74150000D02*
X191810000Y-76675000D01*
%TO.N,+5V*%
X194820000Y-71125000D02*
X191810000Y-74135000D01*
X196575000Y-71125000D02*
X194820000Y-71125000D01*
D35*
%TO.N,VD*%
X131625000Y-60117500D02*
X124542500Y-67200000D01*
X138705000Y-58155000D02*
X132355000Y-58155000D01*
X137975000Y-57425000D02*
X138705000Y-58155000D01*
X131625000Y-57425000D02*
X131625000Y-60117500D01*
X132355000Y-58155000D02*
X131625000Y-57425000D01*
%TO.N,GND*%
X153550000Y-56225000D02*
X152418630Y-56225000D01*
X147948630Y-60695000D02*
X146325000Y-60695000D01*
X122685000Y-84215000D02*
X122475000Y-84425000D01*
X134850000Y-81725000D02*
X134850000Y-85050000D01*
X146325000Y-63235000D02*
X147160000Y-63235000D01*
X122575000Y-98425000D02*
X129725000Y-98425000D01*
X144000000Y-72200000D02*
X124542500Y-72200000D01*
X122475000Y-84425000D02*
X122475000Y-98525000D01*
X131625000Y-53825000D02*
X135250000Y-50200000D01*
X147160000Y-63235000D02*
X148775000Y-64850000D01*
X124542500Y-72200000D02*
X124542500Y-71832500D01*
X122475000Y-98525000D02*
X122575000Y-98425000D01*
X157025000Y-105850000D02*
X157025000Y-108050000D01*
X176325000Y-50820000D02*
X183150000Y-50820000D01*
X157025000Y-108050000D02*
X160375000Y-111400000D01*
X124295000Y-84215000D02*
X124295000Y-82255000D01*
X135400000Y-50350000D02*
X154650000Y-50350000D01*
X129362500Y-98062500D02*
X129362500Y-95800000D01*
X183150000Y-50820000D02*
X183420000Y-50820000D01*
X129725000Y-98425000D02*
X129362500Y-98062500D01*
X146325000Y-56625000D02*
X150300000Y-52650000D01*
X160375000Y-111400000D02*
X160600000Y-111175000D01*
X152418630Y-56225000D02*
X147948630Y-60695000D01*
X135250000Y-50200000D02*
X135400000Y-50350000D01*
X176200000Y-50695000D02*
X176325000Y-50820000D01*
X183420000Y-50820000D02*
X183770000Y-50470000D01*
X131625000Y-55425000D02*
X131625000Y-53825000D01*
X169025000Y-50695000D02*
X169025000Y-50475000D01*
X124295000Y-84215000D02*
X122685000Y-84215000D01*
X160600000Y-111175000D02*
X163125000Y-111175000D01*
X125625000Y-80925000D02*
X135350000Y-80925000D01*
X169025000Y-50695000D02*
X176200000Y-50695000D01*
X124295000Y-82255000D02*
X125625000Y-80925000D01*
X146325000Y-58155000D02*
X146325000Y-56625000D01*
X152350000Y-52650000D02*
X150300000Y-52650000D01*
X183770000Y-50470000D02*
X190900000Y-50470000D01*
X154650000Y-50350000D02*
X152350000Y-52650000D01*
X135350000Y-81225000D02*
X134850000Y-81725000D01*
X148775000Y-67625000D02*
X144200000Y-72200000D01*
X135350000Y-80925000D02*
X135350000Y-81225000D01*
%TO.N,+5V*%
X167250000Y-105525000D02*
X172325000Y-105525000D01*
X172325000Y-105525000D02*
X172450000Y-105400000D01*
X177350000Y-105350000D02*
X177300000Y-105400000D01*
X150950000Y-65775000D02*
X153250000Y-63475000D01*
X182225000Y-105350000D02*
X177350000Y-105350000D01*
X153550000Y-58225000D02*
X153550000Y-58550000D01*
X177300000Y-105400000D02*
X172450000Y-105400000D01*
X124295000Y-93857500D02*
X126237500Y-95800000D01*
X124295000Y-91835000D02*
X124295000Y-93857500D01*
X121300000Y-93200000D02*
X119275000Y-93200000D01*
X153250000Y-63475000D02*
X153250000Y-58525000D01*
X187200000Y-105500000D02*
X182375000Y-105500000D01*
X124295000Y-91980000D02*
X123225000Y-93050000D01*
X119275000Y-93200000D02*
X119175000Y-93100000D01*
X153250000Y-58525000D02*
X153550000Y-58225000D01*
X124295000Y-91835000D02*
X124295000Y-91980000D01*
X146325000Y-65775000D02*
X150950000Y-65775000D01*
X182375000Y-105500000D02*
X182225000Y-105350000D01*
%TO.N,Net-(SW2-A)*%
X148800000Y-102300000D02*
X149225000Y-102725000D01*
X157025000Y-102725000D02*
X162225000Y-102725000D01*
X141593445Y-81325000D02*
X148800000Y-88531555D01*
X162225000Y-102725000D02*
X162375000Y-102575000D01*
X149225000Y-102725000D02*
X157025000Y-102725000D01*
X148800000Y-88531555D02*
X148800000Y-102300000D01*
X140850000Y-81325000D02*
X141593445Y-81325000D01*
%TO.N,Net-(U7-THR)*%
X123380000Y-86755000D02*
X123225000Y-86600000D01*
X121625000Y-83050000D02*
X119175000Y-83050000D01*
X124295000Y-86755000D02*
X123380000Y-86755000D01*
X131915000Y-89295000D02*
X133730000Y-89295000D01*
X124295000Y-86755000D02*
X124295000Y-87230000D01*
X133730000Y-89295000D02*
X134850000Y-88175000D01*
X121675000Y-83000000D02*
X121625000Y-83050000D01*
X121675000Y-86525000D02*
X121675000Y-83000000D01*
%TO.N,Q0*%
X153850000Y-69775000D02*
X153850000Y-70125000D01*
X170700000Y-66150000D02*
X170700000Y-69525000D01*
X170700000Y-69525000D02*
X170450000Y-69775000D01*
X170450000Y-69775000D02*
X153850000Y-69775000D01*
X153915000Y-70190000D02*
X153915000Y-74010000D01*
X153850000Y-70125000D02*
X153915000Y-70190000D01*
%TO.N,Net-(D1-K)*%
X169025000Y-60855000D02*
X169025000Y-65285000D01*
X169025000Y-65285000D02*
X168160000Y-66150000D01*
%TO.N,Net-(D2-K)*%
X176325000Y-60980000D02*
X176325000Y-65650000D01*
X176325000Y-65650000D02*
X175975000Y-66000000D01*
%TO.N,Q1*%
X178515000Y-68460000D02*
X184190000Y-74135000D01*
X167830000Y-78975000D02*
X169625000Y-78975000D01*
X165405000Y-76550000D02*
X167830000Y-78975000D01*
X169625000Y-78975000D02*
X170737169Y-77862831D01*
X172200000Y-76550000D02*
X173604000Y-75146000D01*
X173604000Y-75146000D02*
X183179000Y-75146000D01*
X183179000Y-75146000D02*
X184190000Y-74135000D01*
X178515000Y-66000000D02*
X178515000Y-68460000D01*
X161535000Y-76550000D02*
X165405000Y-76550000D01*
%TO.N,Q2*%
X167350000Y-70725000D02*
X167830000Y-71205000D01*
X182290000Y-69475000D02*
X180775000Y-69475000D01*
X185765000Y-66000000D02*
X182290000Y-69475000D01*
X176150000Y-70725000D02*
X167350000Y-70725000D01*
X167830000Y-71205000D02*
X167830000Y-73895000D01*
X177475000Y-69400000D02*
X176150000Y-70725000D01*
%TO.N,Net-(D3-K)*%
X183150000Y-60980000D02*
X183150000Y-65925000D01*
X183150000Y-65925000D02*
X183225000Y-66000000D01*
%TO.N,Net-(D4-K)*%
X135450000Y-59980000D02*
X135450000Y-59250000D01*
X138705000Y-63235000D02*
X135450000Y-59980000D01*
X144800000Y-69100000D02*
X134950000Y-69100000D01*
X134750000Y-63725000D02*
X135240000Y-63235000D01*
X134950000Y-63925000D02*
X134750000Y-63725000D01*
X137600000Y-55025000D02*
X137600000Y-52650000D01*
X135450000Y-57175000D02*
X137600000Y-55025000D01*
X134950000Y-69100000D02*
X134950000Y-63925000D01*
X135450000Y-57200000D02*
X135450000Y-57175000D01*
X135240000Y-63235000D02*
X138705000Y-63235000D01*
X150400000Y-69325000D02*
X148275000Y-69325000D01*
X144975000Y-69275000D02*
X144800000Y-69100000D01*
X153250000Y-66475000D02*
X150400000Y-69325000D01*
%TO.N,Net-(D5-K)*%
X190900000Y-65825000D02*
X190725000Y-66000000D01*
X190900000Y-60630000D02*
X190900000Y-65825000D01*
%TO.N,Q3*%
X179750000Y-72450000D02*
X177925000Y-74275000D01*
X175710000Y-76175000D02*
X175450000Y-76435000D01*
X177950000Y-76175000D02*
X175710000Y-76175000D01*
X188290000Y-70975000D02*
X182175000Y-70975000D01*
X179750000Y-71525000D02*
X179750000Y-72450000D01*
X193265000Y-66000000D02*
X188290000Y-70975000D01*
%TO.N,Clock*%
X150650000Y-81775000D02*
X150650000Y-79525000D01*
X150800000Y-81925000D02*
X150650000Y-81775000D01*
X141350000Y-77325000D02*
X144850000Y-80825000D01*
X167250000Y-102425000D02*
X165375000Y-100550000D01*
X150650000Y-79525000D02*
X151085000Y-79090000D01*
X140850000Y-77325000D02*
X141350000Y-77325000D01*
X150300000Y-100550000D02*
X150300000Y-82425000D01*
X151085000Y-79090000D02*
X153915000Y-79090000D01*
X150300000Y-82425000D02*
X150800000Y-81925000D01*
X165375000Y-100550000D02*
X150300000Y-100550000D01*
X144850000Y-80825000D02*
X146912500Y-80825000D01*
%TO.N,Net-(U2A-J)*%
X151001000Y-99650000D02*
X151001000Y-84350000D01*
X172450000Y-102300000D02*
X169800000Y-99650000D01*
X151001000Y-84350000D02*
X151181000Y-84170000D01*
X169800000Y-99650000D02*
X151001000Y-99650000D01*
X151181000Y-84170000D02*
X153915000Y-84170000D01*
%TO.N,Net-(U2B-J)*%
X171875000Y-97925000D02*
X163650000Y-97925000D01*
X163750000Y-89325000D02*
X163675000Y-89250000D01*
X163650000Y-89425000D02*
X163750000Y-89325000D01*
X176250000Y-102300000D02*
X171875000Y-97925000D01*
X163650000Y-97925000D02*
X163650000Y-89425000D01*
X177300000Y-102300000D02*
X176250000Y-102300000D01*
X163675000Y-89250000D02*
X161535000Y-89250000D01*
%TO.N,Net-(U3A-J)*%
X166075000Y-93650000D02*
X166075000Y-88350000D01*
X166075000Y-88350000D02*
X167830000Y-86595000D01*
X182225000Y-98750000D02*
X177125000Y-93650000D01*
X177125000Y-93650000D02*
X166075000Y-93650000D01*
X182225000Y-102250000D02*
X182225000Y-98750000D01*
%TO.N,Net-(U3B-J)*%
X187200000Y-102400000D02*
X187200000Y-101950000D01*
X178025000Y-92775000D02*
X178025000Y-91710000D01*
X178025000Y-91710000D02*
X175450000Y-89135000D01*
X187200000Y-101950000D02*
X178025000Y-92775000D01*
%TO.N,Net-(R13-Pad1)*%
X162375000Y-105675000D02*
X162375000Y-105950000D01*
X157425000Y-110500000D02*
X157475000Y-110550000D01*
X158000000Y-110550000D02*
X163125000Y-115675000D01*
X162375000Y-105950000D02*
X159375000Y-108950000D01*
X157475000Y-110550000D02*
X158000000Y-110550000D01*
%TO.N,Net-(U7-DIS)*%
X133426752Y-88266752D02*
X131915000Y-86755000D01*
X133426752Y-88537586D02*
X133426752Y-88266752D01*
X119175000Y-86150000D02*
X119175000Y-90000000D01*
%TO.N,555*%
X121175000Y-89225000D02*
X121725000Y-89225000D01*
X120875000Y-88925000D02*
X121025000Y-89075000D01*
X120875000Y-84350000D02*
X120875000Y-88925000D01*
X121025000Y-89075000D02*
X121175000Y-89225000D01*
X123225000Y-89325000D02*
X124265000Y-89325000D01*
X140850000Y-79325000D02*
X123650000Y-79325000D01*
X123650000Y-79325000D02*
X120925000Y-82050000D01*
X124265000Y-89325000D02*
X124295000Y-89295000D01*
%TO.N,Q3*%
X146912500Y-77412500D02*
X146500000Y-77000000D01*
X146912500Y-78925000D02*
X146912500Y-77412500D01*
%TD*%
M02*
