M48
; DRILL file {KiCad 9.0.3} date 2025-12-16T11:32:46+0100
; FORMAT={-:-/ absolute / metric / decimal}
; #@! TF.CreationDate,2025-12-16T11:32:46+01:00
; #@! TF.GenerationSoftware,Kicad,Pcbnew,9.0.3
; #@! TF.FileFunction,MixedPlating,1,2
FMAT,2
METRIC
; #@! TA.AperFunction,Plated,PTH,ViaDrill
T1C0.300
; #@! TA.AperFunction,Plated,PTH,ComponentDrill
T2C0.800
; #@! TA.AperFunction,Plated,PTH,ComponentDrill
T3C0.900
; #@! TA.AperFunction,Plated,PTH,ComponentDrill
T4C1.100
; #@! TA.AperFunction,Plated,PTH,ComponentDrill
T5C1.200
; #@! TA.AperFunction,Plated,PTH,ComponentDrill
T6C1.400
; #@! TA.AperFunction,Plated,PTH,ComponentDrill
T7C1.500
; #@! TA.AperFunction,NonPlated,NPTH,ComponentDrill
T8C5.500
%
G90
G05
T1
X120.875Y-84.35
X120.925Y-82.05
X121.3Y-93.2
X121.675Y-86.525
X121.725Y-89.225
X123.225Y-86.6
X123.225Y-89.325
X123.225Y-93.05
X126.5Y-87.5
X133.427Y-88.538
X134.0Y-90.05
X135.45Y-57.2
X135.45Y-59.25
X144.0Y-72.2
X144.0Y-85.0
X144.975Y-69.275
X144.999Y-76.75
X145.0Y-86.0
X146.5Y-77.0
X147.0Y-84.0
X148.275Y-69.325
X148.775Y-64.85
X148.775Y-67.625
X149.188Y-78.925
X149.9Y-81.5
X150.815Y-77.051
X151.5Y-81.5
X152.0Y-76.049
X152.0Y-85.5
X153.0Y-104.0
X157.425Y-110.5
X159.375Y-108.95
X160.688Y-76.812
X160.688Y-76.812
X160.688Y-76.812
X162.181Y-77.051
X167.0Y-92.0
X170.737Y-77.863
X172.2Y-76.55
X173.0Y-74.0
X176.215Y-87.134
X177.475Y-69.4
X177.897Y-81.603
X177.925Y-74.275
X177.95Y-76.175
X179.0Y-80.5
X179.75Y-71.525
X180.775Y-69.475
X182.175Y-70.975
X190.0Y-75.0
X193.893Y-91.315
X193.9Y-85.0
X193.9Y-90.0
X194.0Y-92.6
X194.376Y-83.021
X195.1Y-84.0
X195.1Y-85.5
X195.1Y-90.5
X204.0Y-89.5
X205.5Y-89.5
X206.3Y-75.69
X209.5Y-88.9
X209.5Y-90.1
T2
X124.295Y-84.215
X124.295Y-86.755
X124.295Y-89.295
X124.295Y-91.835
X131.915Y-84.215
X131.915Y-86.755
X131.915Y-89.295
X131.915Y-91.835
X132.0Y-55.425
X132.0Y-57.425
X138.705Y-58.155
X138.705Y-60.695
X138.705Y-63.235
X138.705Y-65.775
X140.85Y-77.325
X140.85Y-79.325
X140.85Y-81.325
X146.325Y-58.155
X146.325Y-60.695
X146.325Y-63.235
X146.325Y-65.775
X153.55Y-56.225
X153.55Y-58.225
X153.915Y-74.01
X153.915Y-76.55
X153.915Y-79.09
X153.915Y-81.63
X153.915Y-84.17
X153.915Y-86.71
X153.915Y-89.25
X153.915Y-91.79
X161.535Y-74.01
X161.535Y-76.55
X161.535Y-79.09
X161.535Y-81.63
X161.535Y-84.17
X161.535Y-86.71
X161.535Y-89.25
X161.535Y-91.79
X167.83Y-73.895
X167.83Y-76.435
X167.83Y-78.975
X167.83Y-81.515
X167.83Y-84.055
X167.83Y-86.595
X167.83Y-89.135
X167.83Y-91.675
X169.025Y-50.695
X169.025Y-60.855
X175.45Y-73.895
X175.45Y-76.435
X175.45Y-78.975
X175.45Y-81.515
X175.45Y-84.055
X175.45Y-86.595
X175.45Y-89.135
X175.45Y-91.675
X176.325Y-50.82
X176.325Y-60.98
X183.15Y-50.82
X183.15Y-60.98
X184.19Y-74.135
X184.19Y-76.675
X184.19Y-79.215
X184.19Y-81.755
X184.19Y-84.295
X184.19Y-86.835
X184.19Y-89.375
X184.19Y-91.915
X190.9Y-50.47
X190.9Y-60.63
X191.81Y-74.135
X191.81Y-76.675
X191.81Y-79.215
X191.81Y-81.755
X191.81Y-84.295
X191.81Y-86.835
X191.81Y-89.375
X191.81Y-91.915
X204.683Y-74.632
X204.683Y-77.172
X204.683Y-79.712
X204.683Y-82.252
X204.683Y-84.792
X209.762Y-74.632
X209.762Y-77.172
X209.762Y-79.712
X209.762Y-82.252
X209.762Y-84.792
T3
X168.16Y-66.15
X170.7Y-66.15
X175.975Y-66.0
X178.515Y-66.0
X183.225Y-66.0
X185.765Y-66.0
X190.725Y-66.0
X193.265Y-66.0
T4
X137.6Y-52.65
X150.3Y-52.65
X163.125Y-111.175
X163.125Y-115.675
X169.625Y-111.175
X169.625Y-115.675
T5
X153.25Y-63.475
X153.25Y-66.475
T6
X124.542Y-67.2
X124.542Y-72.2
T7
X140.85Y-75.225
X140.85Y-83.425
T8
X123.5Y-55.5
X124.65Y-117.65
X202.65Y-117.1
X204.125Y-56.575
M30
